<?xml version="1.0" standalone="no"?>
<!DOCTYPE svg PUBLIC "-//W3C//DTD SVG 20010904//EN"
 "http://www.w3.org/TR/2001/REC-SVG-20010904/DTD/svg10.dtd">
<svg version="1.0" xmlns="http://www.w3.org/2000/svg"
 width="1024.000000pt" height="1024.000000pt" viewBox="0 0 1024.000000 1024.000000"
 preserveAspectRatio="xMidYMid meet">
<metadata>
Created by potrace 1.14, written by Peter Selinger 2001-2017
</metadata>
<g transform="translate(0.000000,1024.000000) scale(0.100000,-0.100000)"
fill="#000000" stroke="none">
<path d="M0 5120 l0 -5120 5120 0 5120 0 0 5120 0 5120 -5120 0 -5120 0 0
-5120z m5550 3289 c304 -37 808 -197 1030 -328 36 -21 99 -58 140 -82 143 -81
385 -248 480 -329 268 -229 531 -530 677 -773 261 -433 408 -899 453 -1432 40
-479 -37 -1016 -211 -1473 -90 -238 -239 -524 -347 -665 -45 -59 -76 -116 -68
-124 3 -3 8 2 12 11 3 9 10 16 14 16 13 0 -19 -89 -48 -135 -206 -329 -575
-662 -1007 -907 -158 -90 -201 -110 -380 -180 -243 -96 -415 -143 -685 -191
-112 -19 -160 -22 -450 -21 -362 0 -446 9 -750 79 -182 41 -422 128 -442 159
-20 30 -6 35 40 15 180 -78 397 -137 637 -174 265 -40 471 -51 688 -36 516 36
921 158 1360 412 212 123 443 296 617 462 176 169 399 451 384 486 -4 9 -15
52 -25 96 -10 44 -21 90 -25 102 -5 17 18 67 94 205 105 191 139 259 215 443
73 176 156 505 192 766 20 145 30 460 20 652 -7 140 -8 147 -23 125 -9 -13
-29 -36 -44 -53 l-28 -30 0 -170 c-1 -93 -5 -189 -9 -212 -8 -43 -46 -92 -198
-256 -35 -37 -75 -86 -90 -110 -15 -23 -68 -85 -119 -137 l-91 -95 -6 -128 -6
-128 -48 -74 c-26 -41 -56 -88 -66 -104 -14 -22 -19 -61 -24 -185 -6 -156 -6
-158 -31 -167 -37 -14 -194 -7 -200 9 -3 9 21 12 96 12 l101 0 3 163 3 162 65
90 65 90 3 132 4 132 99 105 c54 58 99 112 99 120 0 8 40 61 89 116 54 62 91
114 95 132 3 17 6 135 6 263 0 207 2 234 16 239 15 6 16 -13 12 -228 -3 -129
-2 -240 2 -247 6 -8 19 -3 47 20 l40 32 6 220 7 221 48 58 c44 55 72 74 72 50
0 -5 16 -10 35 -10 25 0 35 4 35 15 0 9 -22 61 -50 116 -31 62 -50 113 -50
135 0 63 -77 377 -124 503 -25 69 -46 126 -46 127 0 1 9 0 20 -3 11 -3 27 -3
36 1 13 5 6 24 -42 113 -32 60 -89 159 -128 222 -202 330 -493 645 -831 902
-91 70 -339 230 -435 281 -202 108 -635 265 -850 307 -41 8 -358 51 -377 51
-2 0 -3 9 -3 20 0 22 4 22 200 -1z m-987 -179 l142 -130 420 0 420 0 60 45
c73 55 132 85 168 85 59 0 323 -112 311 -131 -3 -5 -31 4 -62 20 -31 16 -101
45 -155 65 l-99 37 -66 -43 c-37 -23 -85 -55 -106 -70 l-39 -28 -438 0 -438 0
-113 106 c-164 154 -133 144 -298 90 -77 -26 -177 -61 -223 -78 -84 -32 -392
-186 -468 -234 -41 -25 -43 -26 -56 -8 -7 10 -10 21 -6 25 5 4 53 33 108 65
180 103 373 186 620 265 83 26 156 48 163 48 7 1 77 -57 155 -129z m2210 -521
c131 -162 336 -429 495 -646 58 -80 95 -109 262 -208 177 -105 320 -204 330
-228 5 -12 32 -80 60 -151 28 -71 61 -142 74 -157 30 -35 44 -116 23 -136 -12
-12 -12 -20 -1 -54 8 -23 14 -81 14 -141 -1 -76 5 -120 20 -168 11 -36 19 -89
19 -120 l-2 -55 -7 65 c-5 36 -15 85 -24 110 -19 52 -97 287 -182 544 -32 99
-68 191 -80 205 -22 26 -139 108 -364 257 -131 87 -156 107 -177 149 -15 27
-94 136 -393 540 -53 72 -137 191 -188 265 -50 74 -114 157 -142 185 -82 81
-57 84 33 3 45 -41 149 -158 230 -259z m-1519 -119 c14 -22 -182 165 -234 224
-24 28 16 -7 90 -79 74 -71 139 -137 144 -145z m658 213 c25 -23 23 -68 -4
-87 -32 -23 -54 -20 -77 10 -23 30 -27 64 -9 82 17 17 68 15 90 -5z m-2943
-220 c-87 -92 -179 -200 -179 -213 0 -10 79 -82 143 -130 l46 -35 1 -84 0 -84
-48 -56 c-139 -160 -267 -388 -387 -687 -67 -167 -106 -299 -146 -494 -26
-127 -32 -177 -32 -280 1 -211 54 -464 129 -612 26 -51 75 -106 416 -466 l136
-144 4 -173 c3 -165 4 -174 28 -208 22 -31 243 -269 510 -552 138 -145 205
-224 229 -273 l21 -42 -48 30 c-45 27 -503 496 -720 736 l-92 102 0 158 0 159
-219 212 c-120 117 -245 242 -277 278 -54 62 -59 72 -90 186 -68 247 -94 499
-74 704 42 425 297 1040 576 1387 49 60 54 72 54 115 0 45 -3 50 -38 71 -20
12 -64 45 -97 72 -32 28 -64 50 -71 50 -20 0 -228 -277 -283 -380 -17 -30 -55
-93 -85 -140 -30 -46 -52 -88 -50 -92 3 -5 34 -8 70 -8 35 0 64 -3 64 -6 0 -4
-9 -21 -20 -38 -10 -18 -49 -113 -85 -211 -179 -488 -244 -914 -216 -1395 25
-415 117 -770 288 -1107 123 -244 393 -604 627 -838 230 -229 435 -381 674
-499 l109 -53 -27 -16 c-15 -9 -42 -39 -61 -66 -19 -28 -38 -51 -44 -51 -5 0
-44 19 -85 41 -386 210 -715 499 -1023 900 -230 300 -410 634 -497 924 -124
413 -133 475 -134 930 -1 430 2 461 91 860 19 85 125 408 160 485 14 30 33 78
43 106 24 67 164 320 246 444 93 140 207 274 371 439 105 104 147 141 155 133
8 -8 -9 -33 -63 -89z m1850 41 c30 -25 86 -64 125 -86 38 -22 85 -51 104 -64
19 -13 43 -24 53 -24 10 0 69 -33 132 -74 98 -64 116 -80 130 -115 29 -72 22
-78 -35 -27 -76 66 -182 135 -252 163 -95 38 -233 122 -259 156 -29 39 -70
117 -61 117 4 0 32 -21 63 -46z m242 -79 l33 -60 -32 23 c-38 28 -52 51 -52
88 0 35 8 27 51 -51z m-641 -11 c152 -33 366 -86 397 -99 33 -14 61 -57 89
-138 17 -49 9 -42 -26 20 -28 52 -153 147 -158 121 -1 -8 15 -59 37 -113 23
-54 39 -100 37 -103 -3 -2 -24 10 -48 28 -24 17 -66 46 -95 63 -29 18 -125 78
-214 135 -145 91 -159 102 -128 102 19 0 68 -7 109 -16z m986 -60 c32 -20 109
-66 173 -101 140 -78 353 -219 418 -277 27 -23 82 -67 124 -98 108 -79 125
-125 97 -262 -11 -56 -12 -58 -39 -52 -15 3 -43 12 -62 20 -37 15 -47 43 -47
135 0 34 3 42 15 37 8 -3 15 -1 15 3 0 5 -6 11 -14 14 -8 3 -44 52 -81 109
-72 110 -121 168 -142 168 -20 0 1 -36 50 -87 22 -24 39 -44 36 -46 -2 -2 -59
26 -127 62 -184 99 -415 292 -476 399 -11 19 -1 15 60 -24z m1142 -46 c32 -35
76 -83 98 -107 21 -24 107 -107 192 -184 84 -77 160 -154 169 -170 l15 -30
-31 22 c-17 12 -77 64 -134 114 -56 51 -125 111 -153 134 -28 24 -88 89 -134
146 l-82 104 -76 7 c-41 3 -134 6 -206 7 -72 0 -140 4 -151 9 -12 5 71 9 206
9 l227 1 60 -62z m-1470 -90 c70 -17 205 -127 241 -195 15 -29 0 -30 -25 -2
-10 12 -53 44 -94 71 l-75 49 70 -63 c109 -99 185 -176 185 -189 0 -6 -9 -1
-21 12 -21 24 -16 6 6 -21 11 -14 37 -100 30 -100 -2 0 -34 19 -72 42 -92 57
-213 153 -298 235 -65 63 -72 74 -98 154 -15 47 -27 90 -27 96 0 6 30 -9 68
-33 37 -25 86 -50 110 -56z m-241 -44 c20 -30 50 -62 65 -70 23 -12 138 -169
138 -188 0 -4 -129 19 -134 25 -7 7 -116 277 -116 287 0 11 16 -7 47 -54z
m636 -33 l83 -39 87 -131 c89 -133 123 -196 129 -241 2 -14 7 -31 11 -37 6 -9
3 -11 -7 -7 -9 3 -16 12 -16 20 0 8 -7 14 -16 14 -14 0 -91 53 -212 147 -49
37 -178 313 -147 313 3 0 43 -18 88 -39z m-989 13 c9 -3 16 -13 16 -21 0 -11
-12 -14 -47 -13 -27 1 -68 1 -93 0 l-45 -2 49 -16 c27 -9 51 -22 53 -28 6 -18
-84 -27 -137 -15 -63 15 -191 13 -285 -4 -158 -29 -160 -17 -6 35 142 48 254
68 373 69 58 1 113 -2 122 -5z m257 -66 c26 -20 74 -78 103 -126 10 -17 -37 8
-70 35 -21 19 -79 113 -69 113 3 0 20 -10 36 -22z m-127 -13 c18 -14 10 -15
-75 -14 l-94 2 60 12 c79 17 87 17 109 0z m1509 -72 c27 -25 66 -69 87 -99 22
-29 44 -55 50 -59 5 -3 10 -11 10 -16 0 -16 -39 9 -120 76 -58 48 -76 70 -78
91 -1 15 -13 40 -27 54 -14 14 -25 30 -25 34 0 10 42 -23 103 -81z m-2521 52
c39 -13 40 -14 8 -9 -98 15 -138 16 -162 3 -51 -28 -276 -215 -282 -234 -3
-11 -6 -73 -6 -138 l0 -119 -37 -31 c-67 -55 -335 -331 -344 -354 -4 -12 -10
-146 -13 -298 -5 -259 -13 -348 -26 -265 -3 19 -3 157 0 305 l5 270 178 175
c97 96 185 179 195 183 15 7 17 22 14 129 -2 67 -1 132 2 144 3 12 70 73 158
144 l152 122 57 -6 c32 -4 77 -13 101 -21z m2158 -79 c199 -99 234 -136 265
-277 20 -93 16 -112 -20 -103 -14 3 -25 2 -25 -4 0 -5 16 -12 36 -15 20 -4 74
-25 120 -47 69 -35 94 -54 148 -116 36 -41 89 -114 117 -162 28 -48 62 -100
76 -116 17 -20 22 -36 18 -55 -3 -14 -6 -49 -7 -78 l-2 -51 -29 15 c-124 64
-154 97 -192 212 -10 32 -34 72 -57 97 l-39 42 31 7 c43 9 48 30 20 82 -24 46
-78 83 -178 122 l-53 21 7 -35 c8 -43 -9 -47 -26 -5 -7 16 -16 28 -20 25 -4
-2 -6 17 -4 43 2 38 1 41 -4 14 l-7 -33 -51 48 c-42 39 -55 59 -69 108 -22 81
-85 195 -151 277 -59 73 -70 97 -26 56 15 -14 70 -47 122 -72z m-366 42 c23
-32 76 -129 76 -142 0 -31 -86 86 -110 149 -13 36 4 31 34 -7z m-864 17 c0
-17 -175 -63 -189 -50 -9 10 23 33 59 43 36 11 130 16 130 7z m-335 -15 c8
-13 -5 -13 -25 0 -13 8 -13 10 2 10 9 0 20 -4 23 -10z m525 -15 c27 -29 20
-32 -17 -8 -26 17 -26 17 -21 -5 4 -12 2 -20 -3 -16 -5 3 -9 12 -9 20 0 8 -4
12 -10 9 -11 -7 -14 8 -3 18 13 14 40 6 63 -18z m1330 -10 c19 -23 8 -26 -20
-5 -19 15 -21 20 -9 20 9 0 22 -7 29 -15z m-1418 -3 c2 -4 18 -18 36 -31 18
-13 31 -26 28 -29 -3 -3 -14 2 -23 10 -10 8 -32 21 -50 29 -21 9 -28 16 -20
21 16 10 25 10 29 0z m-354 -26 c20 -20 6 -37 -72 -88 -83 -53 -92 -51 -88 18
4 50 7 58 35 75 37 23 100 20 125 -5z m-198 4 c0 -5 8 -7 18 -4 26 8 -34 -42
-110 -91 -36 -24 -119 -89 -184 -145 l-117 -101 -24 23 -25 23 95 91 c52 50
120 105 151 123 53 30 75 50 41 37 -8 -3 -15 -1 -15 4 0 6 10 10 23 11 12 0
42 8 67 19 51 21 80 24 80 10z m531 -16 c30 -9 61 -23 70 -31 12 -10 18 -11
21 -3 2 8 31 -5 75 -31 40 -24 71 -44 70 -45 -3 -2 -299 95 -304 100 -5 4 5
26 11 26 1 0 27 -7 57 -16z m-151 -11 c-1 -18 -110 -73 -144 -73 -20 0 -36 3
-36 6 0 15 68 60 99 65 55 9 81 10 81 2z m110 -60 c11 -10 -29 -23 -72 -23
-51 0 -69 13 -41 29 16 10 101 5 113 -6z m381 -3 c35 -10 102 -55 172 -117 35
-31 49 -74 29 -87 -15 -9 -158 92 -206 145 -62 69 -62 77 5 59z m1368 -61 c5
-16 8 -29 5 -29 -14 0 -54 61 -54 81 0 20 38 -21 49 -52z m-1559 6 c14 -7 50
-20 80 -29 30 -9 77 -33 105 -54 46 -35 95 -93 95 -113 0 -5 -26 -9 -58 -9
-71 0 -106 18 -230 117 -81 65 -91 77 -82 94 12 21 40 19 90 -6z m-110 -11 c0
-2 -14 -4 -31 -4 -16 0 -28 4 -25 9 5 8 56 3 56 -5z m900 -4 c22 -11 70 -49
108 -83 37 -35 91 -82 120 -106 28 -23 49 -47 46 -52 -3 -5 -2 -8 3 -7 5 2 37
-21 71 -51 43 -38 59 -58 52 -65 -7 -7 -16 -4 -28 8 -9 11 -11 15 -3 11 10 -6
12 -4 7 4 -4 6 -11 9 -17 6 -5 -3 -37 13 -71 37 -101 69 -150 99 -143 88 3 -5
31 -26 61 -46 30 -20 52 -39 49 -42 -3 -3 -15 4 -28 16 -13 12 -27 22 -32 22
-4 0 28 -37 72 -82 45 -46 113 -116 152 -157 46 -48 76 -71 86 -67 8 3 15 1
15 -4 0 -5 9 -14 20 -20 19 -10 19 -7 -5 47 -30 69 -59 109 -75 105 -6 -1 -9
2 -6 7 4 5 2 12 -4 16 -6 4 -7 12 -4 18 4 7 4 9 -1 5 -4 -4 -17 -3 -27 3 -15
8 -17 14 -9 22 8 8 21 2 48 -20 21 -16 38 -34 38 -39 1 -23 38 -74 89 -124 31
-30 56 -61 56 -68 0 -22 76 -155 102 -178 13 -12 56 -43 96 -69 39 -26 72 -50
72 -54 0 -12 -23 -31 -38 -31 -8 0 -25 9 -39 19 -13 11 -31 17 -39 14 -21 -8
-119 89 -149 147 -40 77 -88 125 -151 149 -31 11 -84 43 -118 70 -56 45 -72
65 -126 158 -11 18 -54 55 -97 84 -85 55 -120 94 -250 271 -41 55 -24 52 37
-7 66 -62 90 -68 44 -9 -57 71 -58 74 -40 74 9 0 35 -9 56 -20z m-1345 -57
c-46 -66 -65 -80 -167 -121 -4 -2 -8 1 -8 7 0 6 24 28 53 50 28 22 75 60 102
85 28 25 54 46 58 46 4 0 -13 -30 -38 -67z m268 55 c20 -1 37 -5 37 -10 0 -14
-69 -20 -104 -8 -45 14 -47 30 -3 25 17 -2 49 -5 70 -7z m1941 -68 c42 -53 45
-60 26 -60 -13 0 -27 11 -38 31 -9 17 -27 47 -39 66 -48 72 -18 50 51 -37z
m-2299 40 c-61 -63 -185 -104 -185 -61 0 11 6 23 12 28 32 20 146 62 172 62
l30 1 -29 -30z m2215 -20 c8 -4 32 -35 53 -70 28 -46 34 -61 20 -55 -10 4 -46
15 -79 23 l-62 15 -6 50 c-3 28 -10 55 -16 61 -23 23 -7 25 33 5 23 -13 49
-25 57 -29z m-1965 16 l26 -24 -30 -10 c-16 -6 -37 -22 -46 -35 -17 -26 -30
-34 -80 -47 -16 -4 -38 -11 -47 -15 -29 -12 -20 9 12 27 16 9 36 32 43 51 14
33 61 76 84 77 7 0 24 -11 38 -24z m1018 -3 c25 -12 117 -126 117 -145 0 -4
-19 11 -42 32 -24 22 -47 40 -52 40 -6 0 -3 -6 5 -12 24 -21 139 -155 139
-163 0 -4 -7 -2 -15 5 -12 10 -15 10 -15 -1 -1 -9 -9 -4 -23 11 -12 14 -31 32
-42 40 l-20 15 20 -25 c35 -42 87 -88 71 -62 -10 17 9 15 24 -3 22 -26 3 -29
-42 -6 -24 12 -35 15 -26 8 25 -20 69 -87 64 -96 -9 -13 118 -103 139 -99 8 2
14 -1 14 -7 0 -17 -132 9 -209 41 l-34 15 24 -26 c15 -16 30 -23 41 -20 10 3
20 1 24 -4 3 -7 0 -8 -9 -5 -29 11 -16 -5 28 -35 31 -21 49 -45 66 -82 12 -29
31 -65 42 -80 12 -16 18 -35 14 -44 -3 -9 -2 -13 4 -10 17 10 11 -17 -15 -74
-19 -41 -29 -51 -37 -43 -9 9 -7 20 7 45 19 36 15 74 -7 61 -9 -6 -9 -9 -1
-11 8 -3 9 -12 1 -34 l-10 -29 -63 61 c-61 59 -63 63 -49 84 8 12 16 45 17 73
2 46 -1 53 -43 99 -25 27 -58 72 -75 99 -16 27 -41 54 -55 61 -14 7 -61 13
-107 13 -114 0 -115 1 -92 61 11 27 19 58 19 68 0 21 54 155 75 187 12 19 21
21 57 17 24 -3 55 -12 71 -20z m-963 -27 c0 -3 -4 -8 -10 -11 -5 -3 -10 -1
-10 4 0 6 5 11 10 11 6 0 10 -2 10 -4z m263 -35 c10 -10 7 -10 -14 -2 -15 5
-44 7 -66 4 -27 -3 -43 -1 -48 7 -11 17 110 9 128 -9z m-179 -26 c-9 -14 -19
-23 -22 -20 -5 4 26 45 35 45 2 0 -4 -11 -13 -25z m-84 -5 c13 -9 13 -10 0
-10 -8 0 -22 5 -30 10 -13 9 -13 10 0 10 8 0 22 -5 30 -10z m310 -10 c13 -8
13 -10 -2 -10 -9 0 -20 5 -23 10 -8 13 5 13 25 0z m-775 -10 c9 -15 -96 -110
-122 -110 -33 0 -28 21 15 62 56 53 93 70 107 48z m2562 -42 c23 -23 33 -41
33 -63 0 -18 13 -52 31 -80 26 -41 30 -55 24 -91 -6 -41 -5 -42 90 -149 53
-60 105 -125 115 -146 19 -36 60 -171 60 -196 0 -26 -19 -12 -31 24 -33 102
-78 181 -114 203 -23 14 -57 54 -90 105 -77 118 -96 161 -89 190 3 14 3 42 -1
63 l-7 37 -19 -54 c-23 -65 -22 -64 -48 -56 -19 6 -20 12 -16 123 3 64 5 118
5 120 1 11 30 -4 57 -30z m-187 -3 c95 -11 91 -7 88 -88 -3 -82 -6 -83 -86
-44 -53 26 -65 45 -58 95 5 34 5 33 -7 -8 -13 -47 -30 -56 -35 -20 -5 33 18
93 31 82 7 -6 37 -13 67 -17z m-1965 -1 c-47 -37 -212 -106 -180 -76 29 27
152 92 174 92 25 -1 26 -1 6 -16z m-204 -33 c-41 -57 -111 -102 -111 -71 0 27
113 120 128 105 2 -2 -5 -17 -17 -34z m-381 20 c0 -9 -53 -31 -74 -31 -6 0 3
9 19 20 32 21 55 26 55 11z m216 -48 c-18 -27 -37 -58 -40 -70 -5 -17 -16 -22
-54 -25 -26 -3 -49 -3 -51 -2 -1 2 7 20 19 41 28 51 95 96 152 102 5 1 -7 -20
-26 -46z m571 41 c-3 -3 -12 -4 -19 -1 -8 3 -5 6 6 6 11 1 17 -2 13 -5z m438
-92 c13 -9 28 -26 33 -37 9 -19 7 -20 -65 -17 -40 3 -95 13 -121 23 l-47 18
40 2 c22 0 51 4 65 8 22 7 17 11 -55 45 -55 25 -76 39 -66 45 14 9 173 -55
216 -87z m-488 82 c-3 -3 -12 -4 -19 -1 -8 3 -5 6 6 6 11 1 17 -2 13 -5z
m3896 -44 c23 -26 28 -39 23 -63 -8 -38 -29 -63 -64 -75 -34 -11 -64 -3 -96
25 -34 30 -37 102 -5 134 33 33 104 22 142 -21z m-3708 21 c16 -7 9 -10 -30
-15 -27 -4 -63 -9 -79 -11 -25 -4 -27 -3 -15 11 9 11 22 14 48 9 26 -4 32 -3
21 4 -12 9 -10 11 10 10 14 0 34 -4 45 -8z m353 -3 c-3 -7 -11 -13 -18 -13 -7
0 -15 6 -17 13 -3 7 4 12 17 12 13 0 20 -5 18 -12z m-1391 -85 c-17 -38 -48
-97 -69 -133 -35 -60 -38 -63 -39 -35 -2 58 2 90 19 138 13 38 26 54 57 73 62
37 67 31 32 -43z m133 53 c0 -18 -63 -135 -75 -140 -23 -8 -57 -8 -53 2 18 41
97 142 111 142 9 0 17 -2 17 -4z m609 -56 c-40 -42 -65 -60 -82 -60 l-25 0 27
31 c64 76 80 89 109 89 29 0 29 0 -29 -60z m1182 24 c13 -14 23 -35 21 -46 -3
-15 0 -18 10 -12 10 6 10 4 -1 -9 -21 -27 -43 -22 -35 8 5 20 3 24 -10 19 -9
-3 -13 -10 -10 -15 3 -5 -2 -6 -10 -3 -8 3 -17 11 -19 18 -4 10 6 12 36 10
l42 -3 -35 29 c-19 16 -30 30 -24 30 6 0 21 -12 35 -26z m-1281 1 c0 -8 -6
-33 -12 -55 -14 -44 -52 -65 -90 -51 -19 7 -19 8 9 20 35 14 90 68 80 78 -4 3
-31 -6 -60 -20 -29 -15 -61 -27 -72 -27 -18 0 -18 2 5 20 27 21 94 48 123 49
9 1 17 -6 17 -14z m-740 -12 c-1 -29 -153 -261 -172 -262 -11 -1 9 58 39 118
39 77 134 179 133 144z m2314 -41 c10 6 56 -43 50 -53 -4 -7 2 -6 16 1 12 7
20 8 16 2 -5 -9 28 -59 69 -105 26 -30 10 -30 -24 -2 -17 15 -31 37 -32 48 0
12 -3 16 -6 9 -5 -13 -133 114 -133 133 1 5 9 0 20 -13 10 -13 21 -22 24 -20z
m-1189 8 c-3 -5 -12 -10 -18 -10 -7 0 -6 4 3 10 19 12 23 12 15 0z m-640 -19
c5 -10 -75 -94 -83 -87 -8 8 9 44 33 70 25 27 40 32 50 17z m485 2 c0 -4 -14
-22 -32 -40 -33 -34 -76 -43 -107 -24 -11 7 -3 15 30 32 62 31 109 45 109 32z
m439 -18 c25 -13 81 -40 124 -59 42 -19 77 -37 77 -40 0 -3 -12 -6 -26 -6 -14
0 -23 4 -20 8 2 4 -5 9 -16 9 -12 1 -25 8 -29 15 -6 9 -9 9 -9 1 0 -16 40 -43
63 -43 10 0 16 -4 13 -9 -7 -11 14 -20 84 -36 40 -10 47 -13 25 -14 -100 -3
-216 53 -310 148 -54 56 -47 64 24 26z m673 8 c0 -4 4 -18 9 -30 8 -21 6 -21
-18 -12 -38 14 -40 3 -3 -16 18 -9 30 -18 28 -21 -6 -5 -66 24 -97 48 -26 20
-21 24 11 7 17 -9 23 -8 30 5 5 9 16 16 24 16 9 0 12 5 8 13 -4 6 -4 9 0 5 4
-3 8 -10 8 -15z m-272 -32 c54 -62 110 -168 110 -206 0 -33 -2 -36 -16 -24 -9
7 -29 40 -46 73 -43 86 -80 121 -162 153 -68 26 -70 28 -41 34 17 4 53 6 80 3
39 -4 55 -11 75 -33z m1043 19 c10 -10 1 -11 -38 -5 -68 9 -87 29 -22 22 27
-2 54 -10 60 -17z m-2535 3 c-20 -41 -49 -110 -54 -129 -8 -31 -57 -84 -79
-84 -14 0 -15 7 -10 48 8 53 38 127 62 154 15 17 89 27 81 11z m2239 -9 c9
-23 -13 -40 -32 -24 -12 10 -13 16 -4 26 15 18 28 18 36 -2z m353 -34 c66 -34
161 -203 179 -319 7 -41 17 -82 23 -90 34 -51 -116 120 -171 194 -61 80 -141
211 -141 228 0 15 73 6 110 -13z m-1885 0 c-3 -5 -12 -10 -18 -10 -7 0 -6 4 3
10 19 12 23 12 15 0z m1139 -16 c3 -8 2 -12 -4 -9 -6 3 -10 10 -10 16 0 14 7
11 14 -7z m-1189 -21 c-25 -14 -27 -18 -11 -21 10 -2 31 6 47 17 31 23 40 14
12 -11 -25 -22 -60 -31 -79 -20 -14 8 -12 12 11 30 15 12 33 22 39 22 6 -1 -2
-8 -19 -17z m-407 -61 c-17 -34 -28 -46 -42 -44 -10 2 -15 -1 -12 -7 6 -8 -41
-41 -58 -41 -3 0 19 23 49 50 29 28 59 65 66 82 7 17 15 26 17 19 2 -6 -7 -33
-20 -59z m136 17 c-19 -21 -25 -33 -16 -36 6 -3 9 -10 5 -16 -4 -7 1 -6 10 2
9 7 17 9 17 3 0 -5 -11 -17 -25 -26 -16 -10 -25 -26 -25 -41 0 -26 -15 -39
-125 -108 -27 -17 -54 -30 -60 -28 -5 1 -7 -1 -3 -5 4 -4 1 -19 -6 -33 -8 -14
-20 -40 -26 -58 -7 -18 -18 -38 -26 -44 -28 -23 -15 39 16 74 17 19 30 46 30
59 0 27 47 105 68 113 7 3 -1 -13 -18 -35 -18 -23 -29 -44 -25 -48 3 -4 13 2
20 12 8 10 24 20 37 21 13 1 26 3 30 4 4 0 19 24 33 51 24 47 24 50 6 50 -28
0 -33 25 -9 55 19 25 109 77 117 69 3 -2 -9 -18 -25 -35z m1760 25 c3 -8 2
-12 -4 -9 -6 3 -10 10 -10 16 0 14 7 11 14 -7z m-2711 -49 c-65 -59 -210 -221
-352 -393 -46 -56 -85 -102 -87 -102 -42 0 256 350 410 481 97 82 117 92 29
14z m178 37 c-5 -10 -18 -25 -28 -33 -12 -10 -11 -5 6 19 24 35 38 43 22 14z
m407 -29 c0 -27 -2 -64 -5 -83 -7 -35 -7 -35 -14 15 -6 40 4 115 15 115 2 0 3
-21 4 -47z m128 15 c-17 -46 -54 -115 -66 -123 -11 -7 -13 18 -4 52 4 13 11
20 17 16 6 -4 7 -1 2 6 -4 8 5 26 26 47 18 19 34 34 35 34 1 0 -4 -15 -10 -32z
m2121 26 c-3 -3 -12 -4 -19 -1 -8 3 -5 6 6 6 11 1 17 -2 13 -5z m-2464 -71
c-5 -61 -41 -165 -43 -120 -1 47 -130 -18 -130 -66 0 -17 5 -19 41 -13 l42 7
-46 -41 c-29 -26 -54 -61 -68 -96 -30 -72 -43 -69 -18 4 11 31 24 90 29 131 9
69 14 79 75 162 66 88 76 97 106 98 14 1 16 -8 12 -66z m1015 13 c-54 -32
-118 -60 -118 -51 0 6 152 84 164 85 6 0 -15 -15 -46 -34z m976 14 c13 0 26
-10 34 -27 18 -39 15 -52 -10 -47 -17 3 -16 1 5 -7 28 -11 36 -33 15 -45 -6
-4 -19 2 -29 14 -9 12 -22 22 -28 22 -9 0 -9 6 -1 20 6 11 7 19 3 18 -4 -1
-24 13 -43 31 l-35 33 34 -6 c18 -3 43 -6 55 -6z m119 -28 c24 -23 40 -71 19
-58 -4 2 -9 -5 -9 -17 -2 -19 0 -18 16 7 16 23 19 25 25 10 10 -26 -2 -50 -30
-62 -40 -19 -54 -15 -54 16 0 15 -4 42 -9 59 -7 22 -6 35 1 40 7 4 3 9 -10 14
-12 5 -22 13 -22 18 0 16 44 0 73 -27z m-1439 -39 c-9 -49 -26 -82 -59 -113
l-26 -25 11 30 c21 59 64 145 73 145 4 0 5 -17 1 -37z m-854 -12 c0 -5 -7 -14
-15 -21 -17 -14 -55 -111 -55 -140 0 -13 -7 -20 -20 -20 -11 0 -47 -11 -80
-25 -33 -14 -64 -25 -71 -25 -18 0 -4 23 25 40 15 8 37 31 49 51 39 65 101
137 122 142 35 8 45 7 45 -2z m1150 -15 c0 -2 -7 -9 -15 -16 -13 -11 -14 -10
-9 4 5 14 24 23 24 12z m1267 -63 c-9 -26 -17 -57 -19 -68 -4 -19 -5 -19 -17
4 -11 20 -11 31 0 65 7 23 18 46 24 53 20 23 27 -6 12 -54z m-1397 45 c0 -4
-13 -14 -30 -23 -29 -15 -30 -15 -30 5 0 11 -4 20 -10 20 -5 0 -10 -7 -10 -15
0 -8 -4 -15 -10 -15 -5 0 -10 8 -10 19 0 16 7 19 50 18 28 0 50 -4 50 -9z
m-562 -53 c-6 -14 -13 -23 -15 -21 -5 5 15 46 22 46 3 0 -1 -11 -7 -25z m642
11 c0 -3 -4 -8 -10 -11 -5 -3 -10 -1 -10 4 0 6 5 11 10 11 6 0 10 -2 10 -4z
m270 1 c0 -2 -10 -12 -22 -23 l-23 -19 19 23 c18 21 26 27 26 19z m-371 -44
c-5 -21 -11 -50 -14 -65 -7 -35 -23 -36 -31 -3 -5 19 1 36 21 65 15 22 29 40
30 40 1 0 -2 -17 -6 -37z m1221 27 c0 -5 -4 -10 -10 -10 -5 0 -10 5 -10 10 0
6 5 10 10 10 6 0 10 -4 10 -10z m1031 -100 c17 -30 42 -70 56 -88 14 -18 23
-36 19 -39 -13 -13 -63 12 -102 50 -40 41 -64 103 -64 169 0 21 2 20 30 -7 17
-16 44 -54 61 -85z m-2957 94 c13 -5 11 -14 -14 -63 -15 -32 -31 -73 -35 -92
-8 -43 -56 -141 -72 -146 -8 -3 -7 9 3 43 8 26 14 69 14 96 0 60 19 107 56
142 16 14 30 26 31 26 1 0 8 -3 17 -6z m1620 -14 c17 -10 60 -49 97 -85 70
-68 72 -71 144 -270 15 -40 40 -72 131 -160 83 -80 115 -119 120 -141 8 -42
-3 -46 -54 -24 l-42 19 0 -22 c0 -38 23 -70 57 -79 35 -9 61 -41 85 -103 40
-102 70 -154 91 -157 25 -3 32 -41 11 -58 -9 -8 -14 -6 -19 9 -3 10 -13 25
-22 33 -14 11 -14 7 2 -21 29 -50 49 -59 75 -36 36 33 44 3 9 -33 -17 -18 -35
-32 -39 -32 -19 0 -90 92 -100 132 -7 23 -14 48 -16 53 -4 10 -39 56 -175 232
-94 123 -156 214 -175 259 -18 43 -10 44 13 2 13 -26 18 -29 21 -15 2 10 -14
40 -38 70 -100 127 -156 224 -190 330 -12 37 -19 71 -15 77 4 6 1 17 -5 25
-17 21 0 18 34 -5z m562 -28 c-14 -15 -15 -13 -3 17 8 23 13 28 15 16 2 -10
-3 -25 -12 -33z m73 16 c-1 -46 -12 -81 -27 -86 -17 -5 -15 23 4 59 8 17 12
34 8 37 -4 4 -9 1 -11 -6 -5 -13 -23 -7 -23 9 0 6 5 7 10 4 6 -3 10 -1 10 4 0
6 7 11 15 11 10 0 15 -10 14 -32z m-1243 5 c-2 -9 -23 -32 -47 -51 l-44 -34
40 35 c22 20 41 41 41 47 2 16 4 20 8 20 2 0 3 -8 2 -17z m-431 -43 c-34 -48
-43 -56 -57 -42 -17 17 1 50 40 69 20 10 39 18 41 16 2 -1 -9 -21 -24 -43z
m2190 -23 c28 -36 41 -45 47 -35 6 9 7 6 4 -8 -5 -16 4 -27 41 -54 27 -18 50
-35 52 -37 2 -2 2 -6 -1 -9 -7 -6 -143 56 -173 79 -15 11 -20 28 -21 72 -1 31
1 53 5 48 4 -4 25 -30 46 -56z m-2660 17 c-15 -73 -16 -79 -5 -64 5 8 10 27
10 43 0 15 5 27 11 27 6 0 8 -7 5 -16 -3 -9 -9 -34 -12 -57 -10 -77 -13 -87
-29 -81 -9 4 -25 -6 -41 -25 -14 -17 -30 -28 -35 -25 -5 3 -8 2 -7 -3 1 -4 -4
-19 -11 -32 -20 -37 -34 -11 -26 48 4 30 21 74 42 108 59 99 111 140 98 77z
m860 26 c-3 -5 -12 -10 -18 -10 -7 0 -6 4 3 10 19 12 23 12 15 0z m-540 -30
c-18 -34 -55 -56 -80 -46 -11 4 -13 10 -7 22 12 21 63 54 85 54 16 0 16 -2 2
-30z m432 23 c-4 -5 -37 -38 -75 -76 -46 -46 -68 -62 -70 -52 -4 19 17 47 29
39 5 -3 8 0 7 8 -2 7 3 12 10 10 8 -1 11 2 8 6 -7 11 18 34 59 55 36 18 40 19
32 10z m-1037 -115 c-23 -61 -70 -117 -70 -82 1 43 79 173 88 146 1 -5 -6 -34
-18 -64z m786 50 c-4 -13 -9 -33 -11 -44 -3 -12 -12 -35 -20 -50 -14 -27 -15
-28 -15 -6 0 13 10 46 21 73 22 51 36 66 25 27z m-334 -23 c-2 -15 0 -25 7
-25 6 0 11 8 12 18 0 12 3 10 10 -8 14 -34 6 -113 -16 -146 -15 -23 -19 -25
-26 -12 -10 18 -1 75 12 84 5 3 9 15 8 27 0 16 -6 10 -20 -21 -27 -62 -28 -80
-9 -142 l16 -55 29 49 c24 40 30 45 38 31 5 -9 6 -31 2 -48 -4 -18 -9 -54 -11
-82 -6 -68 -20 -144 -34 -179 -10 -27 -12 -28 -26 -14 -21 21 -21 121 0 173
16 40 16 40 -3 18 -11 -13 -21 -23 -24 -23 -3 0 -6 30 -6 68 -2 91 -3 102 -12
96 -5 -2 -6 -10 -3 -17 2 -7 -2 -21 -10 -32 -13 -17 -15 -18 -16 -3 -1 43 31
171 54 217 29 57 35 63 28 26z m608 6 c0 -6 -5 -13 -10 -16 -6 -4 -26 -31 -46
-62 -38 -59 -56 -67 -29 -11 l17 33 -36 -38 c-20 -20 -36 -42 -36 -49 0 -6 -3
-9 -6 -6 -13 13 40 91 84 123 49 36 62 41 62 26z m1445 -31 c-11 -17 -23 -1
-18 21 5 19 7 19 15 5 5 -9 6 -21 3 -26z m61 -7 c-5 -12 -10 -13 -18 -5 -8 8
-8 15 3 28 15 18 25 4 15 -23z m-2827 -79 l-1 -97 44 -46 c83 -88 81 -84 63
-127 -9 -22 -22 -77 -30 -124 -7 -47 -13 -71 -14 -54 -1 39 -19 94 -39 117
-10 11 -11 17 -4 17 7 0 12 8 12 18 0 10 -20 28 -49 44 l-48 27 -6 -50 c-3
-27 -11 -57 -16 -67 -8 -13 -9 -8 -6 21 15 120 15 113 0 93 -13 -17 -14 -15
-20 18 -8 38 9 156 27 190 11 22 80 116 85 116 2 0 3 -43 2 -96z m2562 66 c29
-39 37 -235 14 -317 -10 -35 -22 -63 -27 -63 -17 0 -19 28 -4 76 20 68 29 245
14 281 -7 15 -12 29 -13 29 0 1 -21 -1 -47 -5 -49 -8 -62 0 -30 18 28 18 73 8
93 -19z m-1707 -27 c-7 -61 -23 -113 -34 -113 -12 0 -23 75 -15 102 6 18 40
57 52 58 2 0 0 -21 -3 -47z m518 -30 c-33 -38 -69 -77 -81 -87 -38 -34 -31
-12 11 37 22 27 42 46 45 43 3 -2 21 13 40 35 19 21 38 39 40 39 3 0 -22 -30
-55 -67z m1812 42 c33 -14 36 -18 24 -33 -25 -32 -43 -41 -82 -42 -33 0 -37 2
-30 18 4 9 8 32 8 50 1 37 7 37 80 7z m-2071 -35 c-6 -24 -23 -37 -23 -18 0
12 18 38 26 38 1 0 0 -9 -3 -20z m1425 -25 c1 -17 -2 -37 -7 -45 -9 -13 -12
-12 -25 5 -16 21 -21 57 -9 69 16 15 38 0 41 -29z m407 -35 c-18 -35 -41 -48
-57 -32 -14 14 37 66 54 56 7 -5 9 -2 5 8 -3 9 -3 19 1 23 15 15 12 -25 -3
-55z m-3179 23 c-10 -10 -19 5 -10 18 6 11 8 11 12 0 2 -7 1 -15 -2 -18z
m3544 2 c0 -18 5 -25 20 -25 11 0 20 -7 20 -15 0 -11 -12 -15 -48 -15 -67 0
-78 15 -39 51 39 35 47 36 47 4z m-2353 0 c7 -20 -16 -105 -29 -105 -5 0 -7
-4 -4 -9 3 -5 -2 -15 -12 -22 -15 -13 -16 -12 -3 4 9 11 10 17 2 17 -6 0 -16
-10 -22 -22 -7 -18 -8 -13 -4 22 7 52 39 130 55 130 6 0 13 -7 17 -15z m2528
-16 c8 -35 -5 -55 -29 -46 -18 7 -22 27 -6 27 6 0 10 11 10 25 0 35 17 31 25
-6z m-3370 -53 c13 -38 28 -73 33 -78 8 -8 31 22 81 107 11 18 12 17 6 -9 -6
-29 -48 -90 -81 -117 -15 -12 -20 -9 -46 21 -25 30 -28 42 -25 83 2 26 0 47
-4 47 -12 0 -19 -46 -13 -82 6 -31 6 -32 -9 -13 -9 11 -17 28 -17 38 0 23 31
78 43 74 4 -1 19 -33 32 -71z m3281 47 c-3 -8 -2 -11 4 -8 13 8 31 -30 23 -52
-16 -47 -63 -71 -63 -33 0 11 5 19 11 18 6 -2 15 7 20 20 6 15 5 21 -1 17 -6
-3 -10 -1 -10 5 0 6 -4 8 -10 5 -13 -8 -13 11 1 36 11 22 34 15 25 -8z m-2315
-10 c-12 -20 -14 -14 -5 12 4 9 9 14 11 11 3 -2 0 -13 -6 -23z m-459 -13 c-7
-48 7 -120 22 -114 11 4 12 -4 5 -38 -4 -24 -8 -62 -9 -84 0 -37 -2 -41 -22
-37 -17 3 -27 -3 -40 -24 l-16 -28 -6 25 c-3 14 -8 51 -11 83 -4 31 -8 57 -10
57 -7 0 -70 -57 -103 -92 -40 -43 -56 -42 -40 2 5 17 13 28 16 26 4 -2 7 17 8
43 1 52 38 133 78 170 14 14 26 23 26 20 0 -2 -11 -37 -25 -77 -25 -73 -32
-122 -17 -122 4 0 17 31 29 68 12 37 32 86 45 107 20 36 23 37 26 18 4 -30 16
-29 30 2 15 33 19 32 14 -5z m415 6 c-9 -13 -14 -32 -11 -43 3 -11 -2 -25 -10
-32 -14 -12 -16 -10 -16 8 0 11 5 21 11 21 5 0 7 5 4 10 -7 11 20 60 31 60 4
0 -1 -11 -9 -24z m-1324 -3 c-13 -2 -23 -9 -23 -14 0 -5 -11 -8 -25 -7 -52 5
-19 26 40 25 22 0 24 -1 8 -4z m1503 -34 c-8 -19 -18 -43 -22 -54 -6 -17 -8
-18 -11 -3 -4 17 35 104 43 95 3 -2 -2 -20 -10 -38z m1894 34 c-1 -8 -85 -73
-95 -73 -16 0 0 22 37 49 42 31 58 38 58 24z m-2746 -73 c7 0 18 11 24 25 24
51 28 22 11 -67 -10 -51 -19 -104 -19 -118 0 -40 -19 -53 -44 -32 -12 9 -18
13 -14 8 11 -13 -8 -42 -48 -73 -36 -27 -37 -27 -51 -8 -15 20 -15 20 -11 -1
4 -15 -3 -30 -22 -47 -31 -30 -43 -94 -29 -155 10 -47 3 -54 -14 -12 l-14 33
-22 -72 c-12 -40 -27 -70 -33 -68 -7 1 -18 -16 -25 -38 -17 -49 -17 -49 -45
-35 -63 33 -87 81 -109 220 -15 96 -4 169 31 198 16 12 35 19 44 16 43 -16 75
-125 57 -194 -8 -31 -9 -28 -10 32 -1 86 -13 119 -23 63 -6 -35 -6 -34 -4 13
2 29 -1 55 -5 58 -5 3 -9 -16 -9 -42 0 -95 61 -278 81 -242 7 13 31 110 59
238 11 49 90 174 121 190 35 19 55 -14 24 -40 -19 -16 -20 -40 -1 -40 20 0 40
55 31 87 -13 53 -17 104 -11 138 l7 35 30 -35 c17 -19 37 -35 43 -35z m2846
47 c0 -27 -23 -51 -64 -67 l-29 -11 37 41 c20 22 36 45 36 50 0 6 5 10 10 10
6 0 10 -11 10 -23z m-725 -33 c32 -43 48 -104 27 -104 -7 0 -39 56 -70 123
-19 42 3 32 43 -19z m287 9 c51 -53 69 -101 69 -188 0 -53 -6 -88 -21 -123
-21 -47 -70 -107 -70 -85 0 6 7 16 16 24 48 40 72 153 50 239 -18 68 -59 140
-81 140 -8 0 -15 7 -15 15 0 24 13 18 52 -22z m-3286 16 c8 -13 -15 -30 -36
-26 -8 1 -16 10 -18 20 -3 12 3 17 22 17 14 0 28 -5 32 -11z m3824 -1 c0 -7
-14 -28 -30 -47 -24 -27 -30 -30 -30 -15 0 25 29 66 41 59 5 -4 9 -1 9 4 0 6
2 11 5 11 3 0 5 -6 5 -12z m-3675 -18 c3 -6 -4 -10 -17 -10 -14 0 -33 -7 -44
-15 -19 -14 -19 -14 2 -15 11 0 26 6 34 13 8 6 6 2 -4 -10 -13 -16 -30 -23
-53 -23 -42 0 -41 9 5 42 39 28 67 35 77 18z m3816 -44 c-11 -25 -25 -46 -31
-46 -6 0 1 23 16 51 31 63 42 59 15 -5z m-2316 17 c-10 -22 -12 -29 -14 -46 0
-7 -7 -22 -15 -32 -13 -18 -13 -16 -7 20 7 39 31 88 39 80 3 -2 1 -12 -3 -22z
m1236 0 c13 -16 12 -17 -3 -4 -10 7 -18 15 -18 17 0 8 8 3 21 -13z m345 -58
c-4 -42 -9 -82 -13 -90 -6 -17 -69 -20 -93 -5 -24 15 14 24 50 12 27 -10 30
-9 30 10 0 33 21 148 27 148 3 0 3 -34 -1 -75z m-1895 -6 c-14 -40 -14 -52 -1
-44 6 3 10 -1 10 -9 0 -8 -4 -18 -10 -21 -5 -3 -10 -11 -10 -17 0 -7 6 -6 15
2 13 11 15 5 14 -41 l-1 -54 -19 40 c-21 45 -25 122 -7 160 16 35 23 23 9 -16z
m-1272 5 c3 -2 -6 -16 -20 -30 -18 -19 -30 -24 -49 -19 -35 9 -36 12 -10 40
18 19 29 23 49 18 14 -3 28 -7 30 -9z m1298 -46 c-3 -7 -5 -2 -5 12 0 14 2 19
5 13 2 -7 2 -19 0 -25z m3943 -32 c-1 -21 -1 -21 -15 -2 -8 11 -15 29 -15 40
1 21 1 21 15 2 8 -11 15 -29 15 -40z m-3869 3 c-5 -13 -10 -19 -10 -12 -1 15
10 45 15 40 3 -2 0 -15 -5 -28z m-1447 5 c23 -9 1 -34 -28 -34 -21 1 -21 1 -2
15 17 13 17 15 3 15 -9 0 -20 -6 -24 -13 -4 -8 -17 -17 -28 -21 -17 -6 -17 -4
4 18 25 26 45 31 75 20z m2373 -16 c-3 -8 -6 -5 -6 6 -1 11 2 17 5 13 3 -3 4
-12 1 -19z m-910 -20 c-3 -8 -6 -5 -6 6 -1 11 2 17 5 13 3 -3 4 -12 1 -19z
m103 -32 c0 -26 -6 -18 -14 19 -5 22 -4 26 4 15 5 -8 10 -24 10 -34z m-133 12
c-3 -8 -6 -5 -6 6 -1 11 2 17 5 13 3 -3 4 -12 1 -19z m203 -65 c-14 -66 -30
-78 -30 -23 0 49 30 126 38 95 2 -10 -1 -43 -8 -72z m-1673 52 c-11 -8 -26
-11 -34 -8 -11 5 -8 9 13 18 35 15 46 9 21 -10z m450 3 c-3 -8 -6 -5 -6 6 -1
11 2 17 5 13 3 -3 4 -12 1 -19z m1033 -13 c-7 -9 -15 -13 -17 -11 -6 6 20 36
26 30 2 -2 -2 -10 -9 -19z m57 -7 c-3 -7 -5 -2 -5 12 0 14 2 19 5 13 2 -7 2
-19 0 -25z m-1100 -30 c-3 -7 -5 -2 -5 12 0 14 2 19 5 13 2 -7 2 -19 0 -25z
m453 -45 c-12 -22 -19 -29 -17 -16 3 12 0 24 -6 26 -6 2 -1 13 11 25 12 12 23
28 23 35 1 6 4 2 6 -10 2 -12 -5 -39 -17 -60z m200 25 c23 -52 49 -113 64
-153 4 -11 12 -31 17 -45 6 -14 21 -38 35 -55 l24 -30 -6 35 c-7 38 -29 86
-49 110 -7 8 -15 31 -19 50 -5 28 0 43 24 80 l30 45 0 -31 c0 -39 39 -80 59
-61 11 10 12 8 6 -10 -5 -17 7 -45 46 -110 28 -49 65 -102 81 -119 15 -17 25
-34 21 -38 -5 -4 -2 -6 4 -4 7 2 24 -16 38 -39 15 -24 24 -43 20 -43 -10 0
-65 64 -87 103 -25 43 -37 48 -30 12 2 -13 1 -36 -2 -50 l-6 -25 -33 36 c-17
21 -42 53 -54 73 l-22 36 -1 -40 c0 -42 14 -69 61 -120 29 -31 59 -92 59 -120
0 -24 -32 -18 -94 20 -32 19 -60 35 -62 35 -8 0 17 -63 55 -137 40 -80 39
-103 -1 -66 -36 33 -18 -8 23 -50 26 -27 36 -34 29 -19 -6 13 -10 26 -8 28 11
11 62 -61 87 -122 38 -92 122 -226 151 -241 37 -18 43 -5 14 30 -28 34 -94
162 -94 184 0 17 4 17 50 -7 44 -23 62 -49 66 -99 2 -19 29 -85 61 -147 57
-111 65 -158 17 -97 -20 26 -52 45 -167 101 -5 2 -4 -5 2 -16 18 -35 13 -43
-16 -25 -15 10 3 -13 40 -50 76 -77 94 -101 107 -147 l9 -32 -39 6 c-22 3 -64
17 -94 30 -30 14 -53 19 -50 13 10 -24 81 -63 134 -75 32 -7 67 -23 83 -38 32
-29 35 -39 7 -24 -11 6 -20 7 -20 2 0 -9 61 -39 90 -44 9 -2 14 3 12 15 -4 22
1 22 24 -5 10 -12 13 -18 7 -14 -31 18 -7 -13 69 -90 45 -46 86 -91 91 -100 8
-15 6 -16 -22 -11 -38 8 -109 55 -142 94 -13 16 -42 42 -64 58 -22 16 -71 58
-109 92 -38 35 -74 63 -82 63 -7 0 -20 7 -28 16 -9 8 -16 11 -16 6 0 -5 18
-26 40 -46 22 -20 35 -36 30 -36 -25 0 14 -41 68 -73 37 -21 68 -50 90 -81 38
-57 40 -70 10 -62 -13 4 -44 12 -69 19 -57 15 -73 28 -107 86 -14 25 -54 73
-87 106 -78 76 -122 175 -111 249 4 25 13 46 19 46 7 0 53 -41 102 -90 111
-110 150 -122 74 -22 -71 91 -93 109 -169 133 -36 11 -83 33 -105 50 l-40 30
42 -38 43 -38 -15 -49 c-28 -91 -18 -142 33 -171 18 -11 20 -14 7 -11 -118 28
-137 41 -154 102 -6 21 -8 55 -5 74 6 35 3 39 -64 96 -38 32 -77 71 -86 86
-17 28 -21 118 -6 153 l9 20 0 -20 c1 -14 4 -16 9 -7 15 23 94 -75 127 -155
17 -40 35 -71 40 -70 19 6 16 74 -4 128 -12 30 -21 77 -21 105 0 28 -7 71 -15
94 -8 23 -15 50 -15 58 0 22 113 -90 152 -151 22 -33 34 -44 40 -35 13 21 10
33 -19 75 -38 55 -125 150 -116 127 6 -17 5 -17 -10 -6 -23 19 -67 111 -67
141 l0 25 28 -25 c15 -14 36 -32 46 -40 18 -13 19 -13 6 11 -15 28 -108 170
-121 184 -5 6 0 -16 11 -46 21 -59 18 -118 -5 -118 -43 0 -129 97 -141 160 -6
33 -48 90 -66 90 -20 0 -4 -69 37 -157 25 -53 45 -100 45 -106 0 -16 -28 12
-57 59 -15 24 -31 44 -34 44 -13 0 -27 -48 -22 -74 5 -26 4 -27 -16 -17 -34
19 -100 109 -107 148 -7 35 8 125 26 153 14 22 31 0 37 -49 3 -22 8 -41 12
-41 4 0 28 18 54 39 42 35 51 39 79 30 17 -4 42 -6 55 -3 38 10 81 -14 93 -51
6 -19 29 -53 51 -77 22 -24 38 -35 35 -25 -3 9 -9 25 -12 35 -4 10 4 7 20 -11
33 -36 33 -27 -1 34 -14 27 -23 52 -19 56 3 4 23 -9 43 -28 36 -33 36 -34 16
-4 -12 17 -32 40 -46 53 -18 17 -27 38 -32 78 -8 69 -25 80 -25 17 l0 -48 -20
25 c-18 23 -20 23 -20 5 -1 -16 -13 -7 -55 38 l-55 58 -10 -26 c-6 -15 -10
-44 -10 -66 0 -47 -14 -44 -24 3 l-6 33 -26 -43 c-27 -45 -35 -50 -53 -29 -8
10 -4 22 15 48 14 19 41 63 59 99 30 60 117 170 134 170 4 0 18 -24 31 -52z
m280 2 c6 -23 8 -51 5 -63 -6 -21 -5 -21 16 3 l22 25 -8 -59 c-13 -108 -19
-110 -49 -16 -18 57 -25 96 -21 118 8 44 22 40 35 -8z m-1434 -4 c-9 -36 -65
-154 -76 -161 -16 -10 -11 45 5 61 8 9 15 12 15 7 0 -10 20 19 20 30 0 5 -4 5
-10 2 -15 -9 -12 9 6 31 14 17 15 17 10 1 -4 -11 -2 -16 5 -12 5 4 7 15 4 26
-7 21 1 39 17 39 6 0 8 -10 4 -24z m3374 17 c0 -14 -54 -63 -69 -63 -10 0 -3
12 19 35 32 33 50 43 50 28z m-2883 -35 c-3 -8 -6 -5 -6 6 -1 11 2 17 5 13 3
-3 4 -12 1 -19z m1068 -74 c4 -36 4 -68 1 -71 -10 -11 -29 52 -33 112 -4 53
-2 58 10 42 8 -10 18 -47 22 -83z m-635 44 c0 -17 -10 -60 -22 -96 l-21 -64
-18 23 c-10 13 -21 39 -25 57 -5 27 -2 38 16 55 19 18 22 19 17 5 -11 -31 1
-20 19 17 20 44 34 45 34 3z m687 10 c-3 -8 -6 -5 -6 6 -1 11 2 17 5 13 3 -3
4 -12 1 -19z m-1136 -111 c-13 -13 -14 19 -3 78 l7 40 3 -54 c2 -30 -2 -59 -7
-64z m-441 74 c0 -5 -7 -14 -15 -21 -8 -7 -15 -17 -15 -22 0 -6 7 -5 15 2 12
10 15 10 15 0 0 -6 -8 -14 -18 -16 -9 -3 -25 -19 -35 -36 -32 -56 -29 -21 3
41 29 54 50 77 50 52z m3172 -18 c14 -16 52 -66 85 -113 67 -96 110 -143 118
-129 4 5 11 9 16 9 6 0 8 -4 4 -9 -3 -5 2 -17 11 -26 15 -15 17 -14 30 2 12
17 13 16 14 -7 1 -24 1 -24 15 -6 8 11 15 14 15 8 0 -20 16 -14 28 11 l11 22
0 -25 c1 -22 2 -23 17 -9 8 9 18 35 21 58 5 33 3 41 -10 41 -9 0 -18 -4 -21
-9 -3 -5 -19 -11 -36 -13 -26 -4 -28 -2 -17 11 6 9 15 19 19 22 14 10 21 125
9 147 -6 12 -8 22 -3 22 21 0 32 -29 32 -85 0 -48 4 -64 20 -78 15 -12 20 -29
20 -66 0 -43 -4 -53 -31 -75 -17 -14 -38 -26 -46 -26 -9 0 -40 -22 -69 -50
-29 -27 -60 -50 -68 -50 -10 0 -1 14 24 36 44 40 50 54 21 54 -31 0 -113 94
-172 197 -35 63 -66 105 -87 118 -17 11 -31 26 -32 33 0 22 35 13 62 -15z
m-1502 -26 c0 -5 -4 -5 -10 -2 -5 3 -10 14 -10 23 0 15 2 15 10 2 5 -8 10 -19
10 -23z m-82 -38 c-3 -8 -7 -3 -11 10 -4 17 -3 21 5 13 5 -5 8 -16 6 -23z
m-1743 -10 c10 -30 2 -32 -12 -3 -6 13 -7 24 -3 24 5 0 12 -9 15 -21z m1045
-26 c-11 -17 -11 -17 -6 0 3 10 7 26 7 35 1 15 2 15 6 0 2 -10 -1 -25 -7 -35z
m-1194 -25 c12 -23 12 -27 0 -22 -8 3 -17 1 -21 -5 -3 -6 -12 -11 -18 -11 -7
0 -2 8 10 18 22 17 22 18 4 41 -11 14 -21 20 -25 13 -3 -6 0 -17 9 -25 13 -13
13 -16 -2 -22 -10 -3 -14 -3 -11 1 4 4 3 15 -3 25 -7 14 -6 23 3 33 15 17 26
6 54 -46z m3698 39 c8 -13 6 -21 -7 -34 -14 -14 -17 -15 -17 -2 0 8 5 20 12
27 9 9 9 12 1 12 -7 0 -15 -4 -18 -10 -12 -20 -26 -10 -15 11 13 23 28 21 44
-4z m-3683 -14 c13 -16 12 -17 -3 -4 -10 7 -18 15 -18 17 0 8 8 3 21 -13z
m112 -3 c3 -11 1 -18 -4 -14 -5 3 -9 12 -9 20 0 20 7 17 13 -6z m152 10 c-3
-5 -11 -10 -16 -10 -6 0 -7 5 -4 10 3 6 11 10 16 10 6 0 7 -4 4 -10z m1534
-88 c17 -58 56 -136 88 -179 24 -31 58 -122 49 -130 -5 -6 -30 49 -45 98 -6
19 -28 51 -49 71 -51 48 -107 166 -98 204 l8 29 17 -23 c9 -13 23 -44 30 -70z
m-1546 31 c-7 -47 -9 -49 -28 -33 -19 16 -20 0 -1 -37 8 -15 22 -59 31 -98 8
-38 18 -80 21 -93 l7 -23 -54 20 c-51 19 -53 19 -29 2 13 -11 36 -22 50 -25
26 -6 48 -23 90 -70 18 -20 20 -25 7 -20 -9 3 -17 10 -17 16 0 5 -4 7 -8 4 -5
-3 -22 3 -38 13 l-31 19 -11 -30 c-6 -17 -17 -28 -24 -26 -16 6 -47 101 -47
150 l-1 37 38 -20 37 -21 -38 34 c-36 32 -37 35 -37 98 1 36 7 78 16 95 8 17
12 22 9 13 -6 -24 0 -23 29 7 14 14 27 25 30 25 3 0 2 -17 -1 -37z m-143 6 c0
-6 -4 -7 -10 -4 -5 3 -10 11 -10 16 0 6 5 7 10 4 6 -3 10 -11 10 -16z m2978
-153 c97 -99 174 -186 178 -200 3 -14 10 -26 15 -26 5 0 8 -37 8 -82 -1 -71
-2 -77 -10 -43 -4 22 -8 57 -8 78 -1 27 -9 47 -29 70 -98 111 -219 241 -276
297 -63 62 -76 80 -57 80 4 0 85 -78 179 -174z m-2931 142 c-3 -8 -6 -5 -6 6
-1 11 2 17 5 13 3 -3 4 -12 1 -19z m3558 12 c-3 -5 -11 -10 -16 -10 -6 0 -7 5
-4 10 3 6 11 10 16 10 6 0 7 -4 4 -10z m-2945 -78 c0 -106 50 -287 91 -334 15
-17 19 -18 15 -5 -16 47 -16 49 4 15 20 -36 49 -54 36 -23 -19 46 -19 50 -5
38 7 -7 20 -13 28 -13 8 0 -3 13 -25 29 -41 31 -99 118 -108 164 -3 15 -8 39
-12 53 -5 26 -3 25 45 -15 40 -34 56 -57 88 -131 27 -64 43 -90 56 -90 26 0
21 -36 -15 -99 -26 -45 -33 -67 -33 -114 0 -34 -4 -56 -10 -54 -19 7 -55 70
-55 98 0 16 -18 69 -40 117 -21 49 -46 117 -55 153 -19 79 -32 301 -16 279 6
-8 11 -39 11 -68z m2980 72 c0 -3 -5 -14 -10 -25 -16 -28 -32 -23 -18 6 10 22
28 35 28 19z m-1791 -54 c0 -9 -4 -8 -9 5 -5 11 -9 27 -9 35 0 9 4 8 9 -5 5
-11 9 -27 9 -35z m-1931 28 c20 -20 14 -48 -18 -85 -30 -33 -37 -30 -31 16 2
7 -2 10 -8 6 -6 -3 -11 -2 -11 3 0 6 6 12 14 15 8 3 20 15 26 26 9 17 8 21 -5
21 -8 0 -14 -3 -12 -7 2 -9 -6 -13 -24 -13 -8 0 -8 5 1 15 15 18 51 20 68 3z
m69 -20 c-3 -7 -5 -2 -5 12 0 14 2 19 5 13 2 -7 2 -19 0 -25z m1777 -22 c-1
-9 2 -13 7 -11 13 9 41 -53 37 -83 -3 -23 -10 -14 -47 57 -38 75 -40 83 -20
69 13 -9 23 -23 23 -32z m-1777 -18 c-3 -8 -6 -5 -6 6 -1 11 2 17 5 13 3 -3 4
-12 1 -19z m4293 -151 c195 -183 256 -245 248 -252 -5 -5 -37 23 -311 278
-115 106 -162 161 -120 138 11 -5 93 -79 183 -164z m-4080 122 c0 -17 -4 -28
-10 -24 -5 3 -10 17 -10 31 0 13 5 24 10 24 6 0 10 -14 10 -31z m-202 -74 l1
-20 -9 20 c-5 11 -8 31 -8 45 l0 25 8 -25 c4 -14 8 -34 8 -45z m951 -62 c6
-23 22 -55 35 -70 13 -15 42 -67 65 -114 23 -48 65 -114 92 -148 27 -34 49
-63 49 -66 0 -15 -51 26 -111 89 -38 39 -71 67 -75 63 -4 -3 3 -36 15 -72 11
-36 21 -68 21 -70 0 -3 -12 -5 -28 -5 -36 0 -69 24 -86 63 -8 18 -15 25 -15
16 -1 -9 8 -36 19 -60 11 -24 20 -50 20 -58 0 -21 -56 35 -70 69 -11 26 -8 33
35 89 25 33 50 63 55 66 6 4 3 19 -6 37 -10 18 -14 42 -10 59 4 22 1 31 -15
40 -45 24 -64 133 -31 179 l17 25 6 -45 c3 -25 11 -64 18 -87z m767 -43 c31
-126 19 -128 -60 -12 -54 80 -66 118 -39 125 10 2 32 -3 48 -12 26 -15 33 -28
51 -101z m-1501 90 c-3 -5 -12 -10 -18 -10 -7 0 -6 4 3 10 19 12 23 12 15 0z
m1695 -129 c11 -28 15 -51 10 -51 -15 0 -70 116 -70 147 1 28 1 28 20 -9 11
-20 29 -59 40 -87z m-1675 79 c-3 -5 -12 -10 -18 -10 -7 0 -6 4 3 10 19 12 23
12 15 0z m1533 -34 c14 -20 20 -40 16 -52 -4 -14 -4 -16 4 -5 8 11 13 8 26
-17 19 -38 20 -42 2 -42 -14 0 -52 54 -74 103 -24 56 -9 64 26 13z m-1501 -13
c7 -20 -16 -24 -26 -4 -9 16 -8 19 6 17 9 -2 19 -8 20 -13z m1396 -90 c90
-109 134 -203 94 -203 -17 0 -97 52 -118 76 -32 37 -74 204 -51 204 6 0 39
-35 75 -77z m-1342 15 c6 -11 5 -19 -1 -23 -5 -3 -10 0 -10 7 0 7 -9 19 -20
26 -12 7 -17 18 -13 28 6 15 8 15 20 -2 8 -10 19 -27 24 -36z m952 21 c31 -23
52 -87 62 -185 8 -66 7 -68 -11 -54 -76 57 -98 91 -109 160 -6 45 6 100 23
100 5 0 21 -9 35 -21z m2615 -17 c-4 -23 -44 -28 -52 -6 -3 9 -1 23 5 30 15
18 51 -1 47 -24z m-3668 -11 c37 -16 80 -61 80 -83 0 -23 -116 55 -123 83 -6
23 -8 23 43 0z m957 -96 c22 -54 27 -75 18 -75 -26 0 -93 119 -80 140 15 23
32 5 62 -65z m734 16 c49 -73 73 -120 66 -127 -10 -10 -32 12 -88 87 -32 43
-49 75 -45 85 9 25 28 12 67 -45z m-92 -32 l23 -44 -28 35 c-16 19 -37 41 -46
49 -26 22 -22 36 5 19 12 -8 33 -35 46 -59z m191 -22 c28 -51 16 -40 -35 33
-28 40 -32 49 -14 32 14 -12 36 -41 49 -65z m1258 -9 c-2 -13 -7 -23 -13 -23
-5 0 -11 10 -13 23 -2 15 2 22 13 22 11 0 15 -7 13 -22z m-788 -38 c0 -5 -7
-7 -15 -4 -8 4 -15 8 -15 10 0 2 7 4 15 4 8 0 15 -4 15 -10z m-640 -20 c25
-13 82 -108 74 -122 -4 -7 -3 -8 4 -4 11 6 42 -41 42 -64 0 -16 -19 -3 -96 69
-38 36 -62 59 -53 53 9 -7 20 -8 24 -4 5 4 5 1 1 -5 -4 -7 -2 -13 3 -13 17 0
13 25 -9 53 -31 39 -27 57 10 37z m1327 -187 c-2 -32 -3 -8 -3 52 0 61 1 87 3
58 2 -29 2 -78 0 -110z m-1085 -4 c33 -36 65 -74 71 -85 27 -49 101 -140 125
-154 35 -22 105 -107 100 -122 -3 -7 -27 11 -55 39 -28 28 -49 53 -47 56 2 2
-10 20 -28 39 -18 19 -51 61 -73 92 -22 32 -60 81 -86 110 -25 28 -67 78 -93
111 -50 62 -35 47 86 -86z m8 99 c15 -21 17 -28 6 -19 -16 13 -41 51 -33 51 2
0 14 -15 27 -32z m71 -90 c19 -24 26 -37 16 -29 -20 16 -61 71 -54 71 3 0 20
-19 38 -42z m-30 -138 c24 -30 50 -61 58 -68 29 -24 -10 -1 -69 41 -71 51
-140 117 -140 135 0 7 4 11 9 7 5 -3 12 -1 15 4 4 5 2 12 -4 16 -5 3 -10 11
-10 16 0 12 79 -73 141 -151z m-1235 73 c-13 -108 -15 -113 -47 -113 -20 0
-29 5 -29 16 0 17 69 154 77 154 3 0 2 -26 -1 -57z m156 -1 c23 -20 49 -55 59
-77 22 -47 25 -105 7 -105 -13 0 -114 134 -135 179 -7 14 -12 34 -13 44 0 15
3 16 21 7 11 -7 39 -28 61 -48z m1049 -162 c8 -12 9 -11 6 7 -4 20 -2 20 47
-9 28 -16 61 -42 73 -56 18 -21 22 -23 16 -7 -5 17 -3 17 18 -5 14 -14 24 -27
22 -29 -1 -2 5 -10 15 -18 9 -8 11 -12 5 -8 -25 12 -13 -13 15 -31 15 -10 47
-36 72 -59 151 -141 147 -136 115 -123 -16 7 -41 19 -54 27 -18 12 -26 12 -29
3 -4 -14 -55 9 -68 30 -5 7 4 5 19 -5 32 -21 37 -6 5 16 -37 25 -81 69 -122
120 -21 26 -53 54 -71 61 -36 15 -91 66 -119 109 -10 15 -22 27 -27 27 -5 0
-2 -11 7 -25 9 -14 15 -28 12 -30 -8 -9 -85 52 -110 87 -25 33 -58 108 -58
131 0 11 186 -177 211 -213z m2218 154 c53 -45 34 -117 -36 -139 -34 -10 -60
2 -83 39 -27 45 -25 72 6 101 35 32 74 32 113 -1z m-4261 -11 c-5 -23 -23 -20
-26 4 -3 18 0 21 13 17 9 -4 15 -13 13 -21z m3561 -120 c-97 -99 -142 -153
-159 -190 -22 -47 -25 -49 -35 -31 -9 19 2 33 85 122 150 160 226 236 236 236
5 0 -52 -62 -127 -137z m-1408 90 l24 -26 -27 19 c-15 10 -28 22 -28 27 0 12
5 8 31 -20z m124 -132 c-3 -2 -6 -2 -7 0 -2 2 -23 27 -48 54 l-45 50 52 -49
c29 -28 50 -52 48 -55z m1503 73 c2 -14 30 -35 94 -69 50 -27 98 -56 107 -63
9 -8 -22 7 -69 32 -47 24 -105 55 -130 68 -25 13 -47 24 -49 25 -2 1 -1 9 3
18 8 22 40 15 44 -11z m-2467 -31 c13 -16 12 -17 -3 -4 -17 13 -22 21 -14 21
2 0 10 -8 17 -17z m1419 -32 c0 -27 -19 -36 -37 -18 -18 18 -9 37 18 37 12 0
19 -7 19 -19z m-1795 -154 c4 -7 -1 -3 -9 8 -20 23 -36 80 -35 120 0 19 7 4
19 -43 11 -40 22 -78 25 -85z m878 139 c41 -17 88 -66 64 -66 -36 0 -117 50
-117 72 0 12 16 10 53 -6z m-1753 -207 c0 -106 -3 -195 -5 -198 -3 -2 -5 87
-5 199 0 112 3 201 6 198 3 -4 5 -93 4 -199z m1977 145 c55 -58 63 -74 37 -74
-8 0 -12 -5 -9 -10 4 -6 10 -8 15 -5 9 6 70 -54 70 -68 0 -5 4 -6 8 -3 5 3 31
-16 59 -42 27 -26 40 -39 28 -30 -11 10 -55 37 -98 61 -42 24 -73 48 -69 52 4
5 2 5 -5 1 -26 -15 -151 72 -178 124 -21 41 -20 43 25 38 22 -2 40 0 40 4 0
21 29 3 77 -48z m68 -14 c21 0 115 -84 124 -112 6 -17 10 -33 8 -35 -6 -5
-157 138 -169 161 -11 20 -10 20 9 4 11 -10 23 -18 28 -18z m-767 -15 c-4 -18
0 -26 13 -30 20 -7 26 -25 9 -25 -5 0 -28 -19 -50 -42 l-42 -43 -39 45 -39 45
23 23 c23 22 86 51 116 52 9 0 12 -8 9 -25z m2790 -47 c45 -27 82 -52 82 -55
0 -3 -10 1 -22 9 -13 8 -60 36 -105 63 -46 26 -83 50 -83 52 0 5 32 -12 128
-69z m-3658 27 c0 -8 -4 -15 -10 -15 -5 0 -10 7 -10 15 0 8 5 15 10 15 6 0 10
-7 10 -15z m1939 -42 c2 -2 -2 -3 -10 -3 -8 0 -23 13 -33 28 l-19 27 29 -25
c16 -14 31 -26 33 -27z m-488 -13 c10 0 41 -51 35 -57 -3 -3 -13 2 -22 11 -10
11 -20 14 -26 8 -8 -8 -68 37 -68 51 0 3 17 1 38 -4 20 -5 40 -9 43 -9z m1999
0 c0 -5 -2 -10 -4 -10 -3 0 -8 5 -11 10 -3 6 -1 10 4 10 6 0 11 -4 11 -10z
m-1840 -67 c118 -70 127 -78 151 -127 24 -50 24 -49 -8 -33 -16 8 -53 22 -83
31 -67 19 -120 51 -120 71 0 8 5 15 12 15 7 0 -7 19 -30 43 -76 77 -51 77 78
0z m1845 9 c24 -5 -19 -7 -104 -6 -110 1 -146 4 -149 14 -4 11 16 12 104 6 60
-4 127 -10 149 -14z m-1378 -53 c14 -5 23 -12 21 -15 -7 -6 -147 59 -148 69 0
4 23 -4 51 -18 27 -14 62 -30 76 -36z m1109 46 c2 -5 -25 -20 -59 -31 -34 -12
-70 -25 -79 -29 -13 -5 -19 0 -24 20 -3 14 -4 28 -1 32 21 20 158 27 163 8z
m522 -41 c102 -34 166 -68 219 -117 99 -91 150 -266 107 -365 -16 -36 -17 -37
-24 -12 -5 14 -9 52 -9 85 -2 76 -12 96 -39 72 -27 -25 -44 -22 -36 7 10 41
-15 94 -70 150 -59 61 -103 85 -196 110 -36 10 -89 24 -118 33 l-54 15 32 33
c30 31 34 32 73 23 23 -5 75 -20 115 -34z m-3009 22 c7 -8 28 -52 46 -98 36
-86 25 -83 -31 9 -41 68 -52 134 -15 89z m2301 -21 c0 -32 -3 -35 -27 -35 -37
0 -139 -49 -205 -98 -29 -21 -63 -44 -76 -51 -33 -18 -189 -34 -210 -21 -9 5
-12 10 -5 10 31 0 129 46 198 90 94 62 143 87 225 116 91 33 100 32 100 -11z
m455 15 c3 -5 1 -10 -5 -10 -7 0 -8 -6 -1 -18 8 -16 3 -17 -67 -11 -43 3 -88
11 -102 19 -23 12 -24 14 -5 21 29 11 173 11 180 -1z m-2258 -118 c28 -41 9
-32 -50 22 -39 37 -57 61 -57 77 0 22 5 19 46 -26 24 -27 52 -60 61 -73z
m1430 56 c-2 -13 -4 -5 -4 17 -1 22 1 32 4 23 2 -10 2 -28 0 -40z m-1612 -8
c5 -16 4 -22 -3 -15 -5 6 -12 24 -16 40 -7 34 7 15 19 -25z m2243 30 c17 -11
32 -24 32 -28 0 -5 -37 -12 -82 -15 -133 -11 -180 13 -90 45 63 22 101 22 140
-2z m207 -29 c27 -12 48 -32 63 -59 25 -45 23 -49 -11 -31 -11 7 -57 24 -101
40 -56 19 -82 34 -88 48 -7 20 -4 21 45 21 29 0 70 -9 92 -19z m-1317 -40 c42
-28 44 -31 17 -25 -16 3 -57 19 -90 35 l-60 29 43 -4 c26 -3 62 -17 90 -35z
m881 0 c9 -17 4 -19 -50 -28 -52 -9 -64 -7 -82 8 l-22 17 30 12 c78 31 104 29
124 -9z m-2022 -28 c26 -32 78 -91 116 -131 38 -41 66 -76 63 -79 -10 -10 -85
48 -139 107 -53 57 -116 160 -98 160 5 0 31 -26 58 -57z m848 25 c13 6 25 1
19 -10 -4 -6 -3 -8 3 -5 6 4 31 -5 55 -19 23 -14 34 -23 23 -19 -11 4 -35 11
-53 15 -35 9 -82 46 -82 64 0 6 7 2 16 -9 8 -11 17 -19 19 -17z m170 -9 c41
-22 75 -47 75 -55 0 -19 0 -19 -76 17 -46 22 -64 35 -60 46 3 8 2 12 -3 9 -5
-3 -11 1 -15 9 -8 21 -4 20 79 -26z m1737 -32 c52 -30 103 -92 125 -151 l16
-43 -34 -43 -34 -42 -7 40 c-6 38 -22 72 -71 153 -54 90 -106 135 -67 59 25
-49 17 -50 -66 -11 -47 22 -63 35 -68 55 -4 15 -4 31 -1 35 8 14 160 -24 207
-52z m-2066 21 c38 -12 74 -23 79 -23 6 -1 21 -7 34 -14 13 -7 38 -15 55 -16
80 -6 169 -19 154 -23 -10 -2 -15 -9 -11 -18 6 -17 -37 -19 -70 -3 -19 9 -19
8 3 -11 14 -12 38 -26 53 -32 18 -6 26 -16 23 -24 -3 -8 -1 -14 5 -14 6 0 8
-4 5 -9 -4 -5 4 -7 16 -3 13 3 19 1 15 -5 -4 -6 4 -14 18 -17 14 -4 24 -10 21
-14 -2 -4 6 -8 19 -8 13 -1 26 4 29 11 3 9 -1 12 -12 10 -10 -2 -29 4 -42 11
l-25 15 33 -4 c18 -2 35 0 38 5 3 4 13 8 22 8 14 0 15 -2 2 -10 -12 -7 -11
-10 5 -15 49 -16 185 -78 185 -85 0 -4 -32 -10 -70 -14 -68 -6 -72 -5 -153 36
-45 24 -85 44 -90 45 -4 1 -3 -1 3 -4 13 -6 13 -30 0 -38 -6 -3 -25 -1 -43 5
-21 8 -44 9 -66 3 -43 -11 -53 -33 -16 -33 31 0 65 -16 65 -32 0 -7 -4 -7 -14
1 -11 9 -16 9 -22 -1 -4 -7 -3 -10 1 -5 5 4 17 0 27 -10 10 -9 18 -13 18 -9 0
4 10 0 22 -8 12 -9 27 -16 33 -16 5 0 3 4 -5 10 -33 20 5 27 100 18 28 -3 34
-29 10 -40 -11 -6 -10 -7 5 -5 11 1 20 9 20 17 0 21 29 24 65 5 45 -23 70 -47
63 -59 -3 -6 -3 -8 1 -5 9 9 93 -17 125 -38 l26 -17 -40 -12 c-22 -7 -67 -12
-100 -12 -59 0 -59 0 -30 13 l30 14 -42 1 c-23 0 -49 3 -58 7 -15 5 -15 8 6
25 l24 19 -56 -7 c-40 -4 -60 -2 -70 8 -8 7 -36 14 -64 14 -62 2 -215 77 -215
106 0 5 4 7 8 4 5 -3 8 5 8 17 -1 17 -21 33 -86 71 -47 27 -104 61 -127 77
-58 40 -63 36 -15 -12 25 -24 47 -37 53 -33 8 5 9 3 4 -5 -4 -8 5 -26 26 -47
l33 -34 -28 0 c-15 0 -40 7 -55 15 -16 8 -32 11 -36 7 -5 -4 -6 -2 -2 4 3 5
-21 41 -54 79 -32 38 -59 73 -59 78 0 24 179 -37 210 -71 8 -9 20 -17 25 -18
6 0 24 -6 40 -13 20 -9 48 -11 85 -6 30 4 72 7 93 6 22 0 35 3 32 9 -8 13 -77
12 -132 0 -34 -8 -50 -6 -90 11 -52 22 -86 53 -88 79 -1 9 -16 37 -34 63 -17
26 -30 47 -28 47 3 0 36 -10 73 -22z m1724 -17 c168 -63 194 -87 195 -174 0
-29 -4 -53 -9 -54 -5 -1 -13 -7 -18 -15 -8 -11 -11 -10 -15 2 -12 33 -114 119
-174 148 -39 19 -109 39 -179 52 -119 22 -160 39 -160 67 0 14 15 15 138 11
122 -5 146 -9 222 -37z m-2480 -1 c0 -5 -7 -10 -16 -10 -8 0 -12 5 -9 10 3 6
10 10 16 10 5 0 9 -4 9 -10z m511 -98 c32 -36 59 -69 59 -73 0 -5 -12 -4 -27
2 -52 20 -92 50 -114 87 -12 20 -31 47 -42 59 l-20 23 42 -17 c27 -11 64 -40
102 -81z m741 78 c29 -11 64 -29 78 -41 l25 -20 -25 7 c-31 8 -140 62 -140 69
0 8 6 6 62 -15z m877 -14 l43 -23 -118 -15 c-74 -10 -134 -13 -159 -8 -29 6
-33 8 -15 10 23 1 23 2 5 10 -25 10 -16 14 80 34 95 20 113 19 164 -8z m-3511
-12 c28 -19 31 -97 5 -126 -24 -27 -68 -23 -98 10 -31 33 -39 56 -31 88 11 41
82 58 124 28z m1597 -24 c10 -11 16 -20 13 -20 -3 0 -13 9 -23 20 -10 11 -16
20 -13 20 3 0 13 -9 23 -20z m915 -6 c0 -2 -9 -4 -21 -4 -11 0 -18 4 -14 10 5
8 35 3 35 -6z m102 -19 c2 3 15 -7 29 -22 l24 -27 -30 19 c-16 10 -40 24 -53
31 -16 8 -19 13 -10 17 7 2 18 -1 24 -9 6 -8 13 -12 16 -9z m1482 6 c3 -5 25
-13 49 -19 34 -9 47 -19 64 -50 35 -60 44 -117 27 -164 -12 -35 -12 -39 1 -28
8 6 17 20 20 31 4 10 15 19 25 19 9 0 20 9 23 20 3 11 10 20 16 20 31 0 -13
-73 -51 -86 -12 -4 -47 -23 -78 -44 -30 -20 -63 -40 -73 -44 -17 -5 -17 -3 3
21 11 16 32 45 46 65 l26 36 -20 45 c-18 41 -52 74 -64 61 -3 -2 -8 19 -11 47
-4 28 -12 57 -18 65 -8 9 -8 14 -1 14 6 0 13 -4 16 -9z m-1139 -29 c66 -27 38
-28 -38 -1 -32 11 -61 18 -64 16 -3 -3 41 -20 97 -37 56 -18 99 -34 96 -37 -6
-7 -201 56 -222 72 -28 20 74 10 131 -13z m335 18 c10 0 11 -3 4 -10 -6 -6
-47 -17 -90 -23 -67 -11 -86 -11 -129 3 l-49 15 104 11 c58 6 114 10 125 8 11
-2 27 -4 35 -4z m-463 -59 c15 -9 12 -10 -17 -11 -70 0 -140 30 -140 61 0 8
127 -32 157 -50z m-1040 -8 c60 -70 103 -127 103 -137 0 -17 -87 41 -151 102
l-71 67 28 12 c16 7 32 12 36 13 3 0 28 -26 55 -57z m772 11 c10 -9 -66 -3
-79 6 -10 7 -1 8 30 4 25 -4 47 -8 49 -10z m1131 -3 c22 -7 19 -9 -20 -14 -25
-3 -94 -8 -155 -11 -82 -4 -104 -2 -85 6 53 22 210 33 260 19z m-1669 -38 c16
-10 29 -21 29 -25 0 -4 -16 2 -35 13 -33 20 -42 29 -29 29 3 0 19 -8 35 -17z
m890 -14 c19 -7 41 -18 49 -25 27 -26 -87 -17 -145 10 l-50 24 56 1 c31 1 71
-4 90 -10z m207 -30 c18 -6 32 -13 29 -15 -5 -5 -140 27 -150 36 -10 9 75 -6
121 -21z m-1098 -15 c78 -38 83 -56 8 -31 -76 26 -134 67 -95 67 7 0 46 -16
87 -36z m-246 -55 c58 -40 103 -76 100 -80 -3 -5 1 -6 9 -3 27 10 27 -13 1
-25 -24 -10 -31 -8 -73 25 -84 67 -167 154 -147 154 3 0 53 -32 110 -71z
m2633 49 c-3 -8 -6 -5 -6 6 -1 11 2 17 5 13 3 -3 4 -12 1 -19z m520 16 c-3 -3
-12 -4 -19 -1 -8 3 -5 6 6 6 11 1 17 -2 13 -5z m-2513 -16 c-3 -4 -11 -5 -19
-1 -21 7 -19 12 4 10 11 0 18 -5 15 -9z m-444 -50 c48 -42 128 -101 149 -110
9 -5 0 -5 -19 -2 -69 12 -180 90 -180 126 0 25 7 23 50 -14z m1104 -4 c21 -8
43 -11 47 -7 5 5 -1 9 -13 10 -11 1 -26 7 -32 14 -8 9 -7 11 5 6 8 -3 47 -8
85 -12 93 -10 125 -23 59 -25 -27 -1 -68 -5 -90 -9 l-40 -8 30 -11 c17 -7 37
-16 46 -21 9 -5 22 -5 32 0 9 6 45 12 79 16 56 5 65 3 83 -16 l19 -22 -28 10
c-35 14 -76 14 -76 0 0 -5 5 -7 10 -4 6 4 19 3 28 -1 23 -10 29 -11 52 -13 11
0 20 -5 20 -11 0 -5 -6 -7 -12 -5 -7 3 -29 7 -48 9 -19 3 -53 9 -75 15 -22 6
-47 11 -55 11 -24 0 80 -56 142 -76 32 -11 58 -21 58 -24 0 -8 -62 -30 -84
-30 -9 0 -31 7 -47 16 -17 8 -33 13 -36 10 -3 -3 6 -10 21 -15 14 -6 26 -16
26 -22 0 -15 -42 -6 -105 22 l-50 23 63 9 c43 7 62 14 62 24 0 10 -6 13 -16 9
-8 -3 -12 -2 -9 4 12 20 -136 79 -292 117 -35 8 -27 21 15 25 46 5 76 1 126
-18z m1315 -19 c23 -32 30 -51 26 -66 -8 -23 -63 -89 -75 -89 -8 0 -40 89 -40
110 0 9 49 90 55 90 1 0 16 -20 34 -45z m-2131 28 c16 -4 20 -8 12 -13 -8 -5
15 -21 61 -43 55 -27 67 -36 48 -37 -14 0 -50 13 -80 29 -30 16 -80 36 -112
45 -33 8 -62 17 -65 20 -7 8 107 7 136 -1z m1842 -48 c-23 -24 -69 -58 -101
-75 -65 -34 -74 -44 -31 -34 24 7 26 6 13 -9 -8 -10 -28 -17 -48 -17 -19 0
-43 -5 -54 -10 -13 -7 -19 -7 -19 -1 0 6 11 13 25 17 14 3 25 10 25 15 0 5
-12 4 -27 -1 -24 -8 -25 -8 -9 3 10 6 42 27 70 46 111 73 190 120 195 116 3
-3 -15 -25 -39 -50z m317 33 c-3 -8 -6 -5 -6 6 -1 11 2 17 5 13 3 -3 4 -12 1
-19z m393 2 c6 -11 31 -45 56 -76 25 -30 44 -60 41 -67 -2 -6 -23 14 -48 45
-55 71 -83 118 -70 118 6 0 15 -9 21 -20z m-2745 -38 c-4 -5 -75 37 -75 44 0
3 18 -6 39 -18 22 -12 38 -24 36 -26z m1965 44 c0 -1 -27 -24 -60 -50 -92 -72
-159 -99 -260 -104 l-85 -3 50 30 c32 19 70 32 105 36 100 11 149 26 192 61
39 30 58 41 58 30z m-1105 -43 c44 -15 47 -17 28 -26 -14 -6 -52 -3 -120 9
-95 18 -97 19 -53 25 77 10 95 9 145 -8z m610 -23 l30 -2 -30 -13 c-16 -8 -42
-14 -56 -15 -29 0 -94 24 -103 38 -11 18 6 19 67 6 34 -7 76 -14 92 -14z
m-1144 -67 c104 -49 189 -91 189 -95 0 -13 -102 -8 -142 6 -20 7 -76 36 -123
65 -47 28 -87 51 -90 51 -2 0 -20 10 -40 21 -27 16 -33 24 -23 30 23 15 38 10
229 -78z m1284 48 c-6 -5 -28 -14 -50 -21 -22 -7 -57 -21 -77 -31 -42 -21 -92
-25 -86 -7 7 21 75 49 140 57 34 5 67 9 73 10 6 1 6 -2 0 -8z m820 -35 c10
-26 14 -54 10 -68 -14 -50 -38 -108 -44 -108 -5 0 -6 59 -2 198 1 36 18 26 36
-22z m-1365 14 c25 -10 42 -19 39 -19 -4 -1 -44 -8 -89 -17 -93 -17 -128 -13
-95 13 23 18 76 42 90 42 6 0 30 -9 55 -19z m1153 -35 c15 -40 16 -54 6 -75
-6 -14 -13 -20 -14 -15 -14 54 -38 125 -42 125 -2 0 -19 -11 -36 -24 -42 -31
-112 -66 -133 -66 -31 0 4 27 74 56 37 15 76 34 87 41 28 19 38 12 58 -42z
m-2891 13 c-7 -7 -12 -8 -12 -2 0 6 3 14 7 17 3 4 9 5 12 2 2 -3 -1 -11 -7
-17z m614 -55 c21 -27 59 -70 84 -97 39 -42 41 -47 15 -31 -44 27 -103 84
-135 133 -41 59 -13 55 36 -5z m140 32 c30 -12 94 -68 94 -81 0 -4 -43 12 -73
27 -28 15 -67 50 -67 61 0 11 5 10 46 -7z m2078 -11 c21 -81 19 -98 -15 -123
-26 -19 -33 -21 -41 -10 -8 11 -9 10 -4 -3 3 -11 -2 -22 -14 -28 -19 -10 -20
-7 -20 54 0 81 21 97 40 30 7 -25 18 -43 24 -41 15 5 19 53 7 88 -10 30 -6 59
9 59 4 0 11 -12 14 -26z m-2279 -26 c19 -22 19 -22 -10 2 -48 40 -51 43 -30
32 11 -6 29 -21 40 -34z m732 -12 c4 -3 -6 -6 -21 -6 -26 0 -96 24 -96 34 0 6
109 -20 117 -28z m921 27 c-10 -2 -26 -2 -35 0 -10 3 -2 5 17 5 19 0 27 -2 18
-5z m48 -20 c-14 -8 -32 -11 -38 -7 -6 4 -8 3 -5 -3 9 -14 -15 -23 -45 -17
-21 4 -21 3 -3 -5 18 -8 18 -10 3 -16 -9 -4 -22 -3 -29 1 -7 4 -9 3 -5 -4 4
-7 -6 -13 -26 -17 -18 -3 -53 -9 -78 -13 -25 -5 -61 -4 -80 1 -31 8 -33 10
-15 20 11 5 37 16 60 23 22 7 31 13 21 13 -19 1 -19 1 -1 15 12 8 33 12 56 9
47 -7 171 6 164 16 -2 5 7 6 22 3 l26 -5 -27 -14z m193 10 c-8 -10 -18 -21
-24 -25 -5 -4 -6 -8 -1 -8 5 0 2 -8 -8 -19 -9 -10 -18 -33 -21 -51 -2 -19 -12
-38 -22 -44 -27 -17 -62 -25 -68 -17 -2 4 -19 6 -37 4 l-33 -4 45 41 c25 22
53 43 62 46 10 3 38 25 63 50 46 45 69 58 44 27z m-777 -30 c38 -14 68 -30 68
-34 0 -10 -92 -29 -133 -28 -18 0 -63 8 -102 18 l-70 17 58 18 c32 11 60 23
63 27 9 16 47 10 116 -18z m968 8 c0 -24 -21 -60 -32 -57 -7 1 -10 1 -5 -1 16
-10 6 -25 -13 -20 -11 3 -18 1 -15 -3 3 -5 -7 -13 -22 -18 -25 -9 -26 -10 -5
-11 60 -2 -6 -68 -97 -96 l-24 -7 22 23 c20 21 25 34 22 52 0 4 4 7 10 7 5 0
7 5 4 10 -3 6 -15 10 -25 10 -31 0 -32 17 -4 60 30 46 54 52 54 15 0 -32 20
-32 51 1 32 35 79 55 79 35z m374 -33 c-15 -84 -38 -157 -60 -195 -14 -24 -26
-43 -29 -43 -2 0 6 28 17 63 12 34 23 84 25 112 5 48 27 95 44 95 5 0 6 -15 3
-32z m530 -47 c29 -93 28 -102 -17 -173 -23 -37 -91 -125 -150 -197 -97 -118
-115 -135 -177 -166 -73 -37 -357 -125 -399 -125 -19 1 2 15 69 48 81 40 111
63 209 157 172 167 432 498 414 528 -3 7 3 4 15 -7 12 -10 28 -39 36 -65z
m-1194 65 c0 -3 -4 -8 -10 -11 -5 -3 -10 -1 -10 4 0 6 5 11 10 11 6 0 10 -2
10 -4z m-1469 -33 c13 -16 12 -17 -3 -4 -17 13 -22 21 -14 21 2 0 10 -8 17
-17z m1814 -29 c5 -30 2 -41 -16 -60 -27 -29 -43 -21 -36 20 8 47 26 88 36 82
5 -3 12 -22 16 -42z m-1605 8 c3 -3 -8 -2 -25 2 -16 4 -34 12 -40 17 -5 5 6 4
25 -2 19 -7 37 -14 40 -17z m1192 11 c-7 -3 -22 -14 -32 -25 -10 -11 -23 -17
-29 -13 -7 3 -10 1 -9 -6 5 -23 -64 -53 -103 -45 -37 6 -78 30 -69 40 3 2 30
7 60 10 30 3 84 16 120 29 36 13 67 22 70 19 3 -3 -1 -7 -8 -9z m629 -35 c-5
-18 -15 -48 -25 -65 -9 -18 -13 -33 -9 -33 11 -1 -37 -40 -48 -40 -5 0 5 26
21 58 16 31 32 69 35 85 3 15 12 27 19 27 11 0 12 -8 7 -32z m-975 -1 l27 -24
-70 -6 c-55 -5 -84 -3 -129 11 l-59 19 45 10 c25 6 71 11 102 12 46 1 62 -3
84 -22z m-407 -3 c11 -10 -11 -15 -40 -9 -23 5 -28 10 -18 16 12 7 46 3 58 -7z
m1601 -53 c-12 -51 -31 -77 -49 -67 -6 4 1 32 17 71 31 74 50 72 32 -4z
m-1829 12 c86 -52 83 -64 -8 -38 -75 22 -118 52 -102 71 17 21 23 19 110 -33z
m1760 -10 c-11 -21 -20 -35 -21 -31 0 12 33 78 38 74 2 -2 -6 -21 -17 -43z
m-1942 -82 c34 -18 61 -34 59 -36 -2 -3 -43 5 -91 16 -66 16 -105 32 -161 69
-40 26 -76 53 -80 58 -8 13 188 -64 273 -107z m-2705 77 c11 -18 58 -85 105
-148 153 -205 457 -497 656 -630 28 -18 86 -59 130 -90 78 -56 232 -145 327
-191 43 -20 69 -52 55 -66 -7 -6 -215 100 -336 172 -226 133 -501 361 -703
582 -168 184 -307 370 -293 392 12 21 41 11 59 -21z m4376 -13 c-5 -33 -17
-56 -40 -80 -37 -38 -67 -47 -55 -17 4 9 14 36 22 60 13 37 53 82 73 82 4 0 4
-20 0 -45z m-330 26 c0 -13 -40 -61 -51 -61 -13 0 -11 27 3 50 13 20 48 28 48
11z m-736 -10 c16 -6 13 -10 -22 -24 -47 -19 -89 -22 -112 -7 -11 7 0 10 37
10 28 0 55 5 59 12 4 7 3 8 -4 4 -7 -4 -12 -2 -12 3 0 12 26 13 54 2z m185
-25 c11 -8 13 -8 7 2 -5 9 4 12 36 11 l43 0 -48 -20 c-27 -10 -53 -16 -59 -13
-7 4 -8 2 -4 -4 9 -15 -34 -26 -101 -27 -28 0 -49 -3 -46 -7 6 -11 -39 -10
-55 1 -16 9 1 15 81 26 45 7 47 8 32 25 -13 14 -13 19 -3 22 21 8 102 -4 117
-16z m764 -14 c-10 -28 -45 -62 -65 -62 -10 0 -18 -4 -18 -10 0 -5 8 -7 18 -3
9 3 14 3 11 0 -9 -11 -99 -36 -99 -28 0 10 98 102 125 118 24 14 36 8 28 -15z
m-379 8 c31 -12 33 -26 5 -41 -24 -12 -166 -2 -152 11 35 35 100 48 147 30z
m611 0 c-3 -5 -11 -10 -16 -10 -6 0 -7 5 -4 10 3 6 11 10 16 10 6 0 7 -4 4
-10z m-821 -9 c7 -11 -48 -47 -86 -56 -16 -4 -28 -3 -28 2 0 5 -16 7 -35 5
-24 -3 -35 0 -35 9 0 7 2 10 5 7 3 -3 31 5 63 18 59 25 107 31 116 15z m-498
-68 c85 -65 88 -68 60 -71 -66 -8 -118 8 -158 48 -25 26 -50 41 -75 45 -66 11
-70 17 -23 30 85 24 99 21 196 -52z m942 45 c-8 -22 -53 -47 -95 -54 -61 -9
-56 11 10 41 56 27 91 32 85 13z m512 -37 c-29 -42 -36 -39 -8 3 13 19 24 33
26 31 3 -2 -6 -18 -18 -34z m-1313 -7 c-3 -3 -12 -4 -19 -1 -8 3 -5 6 6 6 11
1 17 -2 13 -5z m1139 -22 c-8 -24 -54 -72 -70 -72 -6 0 -5 4 2 9 8 4 13 11 13
15 -3 18 1 25 25 51 27 29 40 28 30 -3z m-736 -4 c-23 -19 -47 -22 -74 -12
-40 15 -8 32 58 31 l39 0 -23 -19z m126 11 c9 -15 -14 -29 -48 -29 -29 0 -40
24 -15 33 22 10 56 7 63 -4z m156 -11 c51 2 76 -9 56 -25 -39 -32 -130 -73
-163 -73 -38 0 -83 -19 -103 -43 -11 -13 -6 -14 34 -9 55 6 54 -11 -2 -34 -42
-18 -208 -18 -249 0 l-30 12 29 19 c32 21 85 25 156 11 44 -8 45 -8 28 11 -21
23 -23 43 -5 43 17 0 125 56 162 85 20 15 32 19 37 12 3 -6 26 -10 50 -9z
m-982 -55 c101 -68 101 -68 66 -71 -20 -2 -52 4 -71 14 -39 18 -135 100 -135
115 0 23 46 4 140 -58z m485 47 c29 -11 105 -69 105 -81 0 -10 -58 -29 -89
-29 l-26 1 24 13 c12 7 35 11 50 10 14 -2 -1 4 -34 12 -54 14 -68 14 -140 0
-120 -24 -121 -26 45 65 41 22 33 21 65 9z m173 -45 c2 -1 -9 -6 -23 -9 -25
-6 -85 19 -85 36 0 6 99 -18 108 -27z m592 14 c0 -18 -86 -122 -127 -153 l-38
-29 31 34 c17 19 41 50 54 69 13 19 28 38 33 41 5 3 9 10 9 15 1 20 11 34 24
34 8 0 14 -5 14 -11z m-1365 -40 c28 -23 52 -43 55 -46 3 -3 -28 -3 -68 0 -52
4 -92 15 -135 36 -62 29 -62 29 -27 31 19 1 46 6 60 10 47 15 65 10 115 -31z
m838 34 c-7 -2 -19 -2 -25 0 -7 3 -2 5 12 5 14 0 19 -2 13 -5z m420 0 c-7 -2
-13 -9 -13 -14 0 -6 6 -7 13 -3 8 5 8 2 -2 -9 -14 -18 -38 -21 -65 -11 -19 7
-11 24 10 24 9 0 12 -5 8 -12 -4 -8 -3 -10 2 -5 5 5 10 13 10 18 1 5 2 11 3
14 0 3 11 5 24 4 12 0 16 -3 10 -6z m-2851 -67 c11 -17 17 -23 14 -13 -4 12
-2 17 6 14 7 -2 13 -15 13 -29 0 -14 5 -31 11 -39 13 -15 23 -44 30 -86 7 -37
5 -34 -58 89 -52 102 -59 131 -16 64z m3168 -17 c-25 -23 -74 -58 -110 -79
-63 -38 -220 -91 -264 -89 -11 0 25 13 82 30 121 34 174 60 262 128 79 61 91
65 30 10z m-160 -20 c-72 -61 -93 -69 -36 -14 32 31 61 53 65 50 3 -4 -10 -20
-29 -36z m-212 16 c-12 -12 -128 -53 -122 -43 5 7 1 9 -9 5 -28 -11 -19 2 16
23 28 17 131 30 115 15z m-833 -17 l40 -12 -75 -12 c-83 -14 -199 -16 -245 -4
-24 6 -17 8 35 10 36 1 83 7 105 15 52 17 90 18 140 3z m685 -48 c-18 -12 -30
-13 -30 -2 0 4 10 9 22 9 18 2 20 0 8 -7z m-1360 -13 c19 -2 44 -8 55 -15 19
-12 19 -12 -5 -8 -14 3 -46 8 -72 11 -26 3 -50 11 -54 16 -3 6 4 7 18 4 12 -3
39 -7 58 -8z m1315 -6 c-3 -6 -13 -11 -20 -11 -8 0 -39 -11 -70 -24 -30 -14
-55 -23 -55 -20 0 7 144 73 148 69 2 -2 1 -8 -3 -14z m-1107 2 c-10 -2 -26 -2
-35 0 -10 3 -2 5 17 5 19 0 27 -2 18 -5z m827 -3 c-3 -5 -11 -10 -16 -10 -6 0
-7 5 -4 10 3 6 11 10 16 10 6 0 7 -4 4 -10z m-1162 -17 c25 -13 28 -18 15 -21
-15 -3 -13 -8 13 -29 16 -14 28 -28 25 -30 -7 -7 -134 36 -141 48 -4 5 13 9
36 9 46 0 45 9 -4 27 l-32 11 28 1 c15 1 42 -7 60 -16z m-143 -32 c19 -15 55
-38 80 -51 41 -21 43 -24 23 -31 -12 -4 -52 -3 -90 2 -37 6 -82 12 -99 15 -17
2 -57 20 -89 39 -31 19 -65 35 -74 36 -12 0 -11 2 4 9 11 5 63 9 115 9 91 1
97 0 130 -28z m311 9 c31 0 51 -6 60 -17 13 -15 11 -16 -26 -9 -22 4 -56 7
-76 6 -22 0 -45 7 -60 19 l-24 20 40 -9 c22 -5 61 -10 86 -10z m234 -9 l40 -9
-50 0 c-27 0 -63 4 -80 8 -29 7 -28 8 10 8 22 1 58 -3 80 -7z m1155 5 c0 -6
-87 -56 -97 -56 -4 0 15 14 42 30 53 31 55 32 55 26z m-1922 -36 c34 -16 62
-33 62 -39 0 -5 -31 -8 -72 -6 -46 2 -60 1 -38 -4 34 -6 34 -7 13 -19 -31 -17
-103 -16 -103 3 0 7 8 18 18 24 14 8 15 10 2 14 -8 3 -30 10 -49 16 -50 16
-107 13 -159 -8 -26 -11 -64 -22 -85 -25 -21 -3 -59 -19 -85 -36 -62 -40 -130
-72 -144 -68 -6 2 20 27 59 56 74 55 191 103 245 101 18 0 47 4 63 9 17 6 71
11 120 11 80 1 97 -2 153 -29z m617 -11 c28 -5 61 -19 75 -30 l25 -21 -53 7
c-29 3 -59 8 -67 11 -9 4 -15 0 -15 -9 0 -11 -6 -13 -22 -9 -33 10 -87 44 -92
58 -5 14 54 11 149 -7z m344 9 c48 1 59 -2 41 -8 -14 -4 -49 -8 -77 -9 -42 -1
-53 2 -53 15 0 9 5 12 12 8 6 -4 41 -7 77 -6z m98 6 c-3 -3 -12 -4 -19 -1 -8
3 -5 6 6 6 11 1 17 -2 13 -5z m346 -1 c-7 -2 -19 -2 -25 0 -7 3 -2 5 12 5 14
0 19 -2 13 -5z m-601 -14 c33 1 58 -3 58 -9 0 -5 -8 -10 -17 -10 -10 0 -31 -7
-47 -15 -24 -13 -30 -13 -40 -2 -6 8 -22 22 -36 31 l-25 18 24 -7 c14 -4 51
-7 83 -6z m766 4 c-21 -2 -57 -2 -80 0 -24 2 -7 4 37 4 44 0 63 -2 43 -4z
m395 0 c-7 -2 -19 -2 -25 0 -7 3 -2 5 12 5 14 0 19 -2 13 -5z m-66 -9 c-3 -3
-12 -4 -19 -1 -8 3 -5 6 6 6 11 1 17 -2 13 -5z m-2482 -15 c17 -8 16 -9 -8 -6
-20 3 -25 1 -17 -8 11 -13 -6 -35 -27 -35 -15 0 -15 5 -7 38 7 23 26 27 59 11z
m389 -5 c35 -17 40 -44 7 -44 -9 0 -43 -7 -75 -15 -53 -14 -60 -14 -87 2 -16
10 -29 20 -29 24 0 11 93 47 122 48 15 1 43 -6 62 -15z m346 -33 c0 -9 -21
-13 -117 -24 -46 -5 -41 11 5 18 20 4 44 8 52 10 32 6 60 5 60 -4z m775 -1
c-28 -12 -65 -12 -65 0 0 6 19 10 43 9 32 0 37 -2 22 -9z m-1282 -50 c-4 -3
-28 -12 -53 -19 -25 -7 -68 -25 -97 -40 -31 -17 -49 -23 -46 -15 9 25 -13 15
-35 -15 -12 -16 -47 -44 -79 -62 -32 -17 -66 -39 -75 -47 -21 -17 -22 -11 -8
40 9 32 20 43 73 72 34 18 79 39 100 46 20 6 37 15 37 18 0 13 70 54 102 62
25 5 40 2 61 -13 16 -11 25 -23 20 -27z m93 -9 c-10 -11 -25 -17 -37 -14 -25
7 -24 12 4 23 39 16 52 12 33 -9z m1594 14 c0 -3 -26 -18 -57 -34 -32 -16 -73
-45 -92 -65 -26 -26 -48 -38 -89 -47 -47 -9 -64 -20 -131 -83 -109 -104 -212
-188 -219 -181 -8 7 206 214 260 252 21 14 59 30 85 34 32 6 54 18 68 35 16
19 75 52 173 93 1 1 2 -1 2 -4z m1620 -15 c0 -5 -5 -10 -11 -10 -5 0 -7 5 -4
10 3 6 8 10 11 10 2 0 4 -4 4 -10z m-3284 -45 c-11 -8 -26 -15 -33 -15 -34 0
-142 -61 -183 -104 -38 -40 -46 -44 -52 -29 -6 14 -7 12 -5 -8 2 -20 -10 -35
-53 -70 -30 -25 -71 -66 -90 -92 l-35 -47 -3 67 c-5 109 11 131 128 168 35 11
70 32 98 58 32 32 60 47 115 63 39 12 86 22 102 23 28 0 29 0 11 -14z m964
-47 l85 -2 -75 -3 c-83 -4 -120 2 -120 19 0 9 3 9 12 0 7 -7 47 -13 98 -14z
m201 -13 c-28 -19 -53 -35 -57 -35 -8 0 46 44 71 58 43 24 35 10 -14 -23z
m-331 -20 c15 -18 5 -35 -20 -35 -22 0 -34 15 -26 35 7 19 30 19 46 0z m1004
-70 c-95 -88 -106 -82 -14 8 41 39 77 68 79 64 2 -5 -28 -37 -65 -72z m-604
49 c-8 -8 -23 -20 -34 -25 -13 -7 -9 -1 9 15 34 29 43 33 25 10z m544 -27
c-22 -24 -41 -42 -43 -40 -5 3 70 83 77 83 3 0 -13 -19 -34 -43z m281 9 c-16
-13 -41 -33 -54 -45 l-24 -21 52 0 c61 0 238 -27 260 -40 14 -8 14 -9 0 -10
-9 0 -75 -27 -146 -60 -253 -116 -623 -223 -879 -254 -149 -18 -531 -21 -714
-6 -143 12 -457 82 -647 145 -79 25 -143 48 -143 50 0 4 89 136 100 148 4 5
81 -16 171 -47 220 -73 363 -101 654 -126 282 -24 559 3 895 86 253 62 324 88
407 149 74 54 128 78 68 31z m-1009 -41 c-21 -16 -121 -21 -153 -7 -11 4 17 9
72 13 50 3 92 6 95 7 3 1 -4 -5 -14 -13z m-1283 -112 c-19 -37 -43 -55 -43
-33 0 6 12 37 28 68 25 52 27 55 30 29 2 -15 -5 -44 -15 -64z m-272 40 c-8
-15 -10 -15 -11 -2 0 17 10 32 18 25 2 -3 -1 -13 -7 -23z m210 -53 c-10 -36
-28 -85 -39 -110 -12 -25 -22 -64 -22 -87 0 -54 42 -187 75 -235 14 -21 22
-38 17 -38 -16 0 -128 124 -140 155 -24 60 -41 178 -28 201 10 19 149 182 153
180 1 -1 -6 -31 -16 -66z"/>
<path d="M6081 6944 c13 -17 26 -30 28 -27 3 2 -8 16 -24 31 l-28 27 24 -31z"/>
<path d="M4578 7193 c7 -3 16 -2 19 1 4 3 -2 6 -13 5 -11 0 -14 -3 -6 -6z"/>
<path d="M5620 6776 c0 -2 8 -10 18 -17 15 -13 16 -12 3 4 -13 16 -21 21 -21
13z"/>
<path d="M5735 6750 c10 -11 20 -20 23 -20 3 0 -3 9 -13 20 -10 11 -20 20 -23
20 -3 0 3 -9 13 -20z"/>
<path d="M6161 6290 c0 -8 6 -26 15 -40 l15 -25 -7 25 c-3 14 -10 32 -15 40
-7 13 -8 13 -8 0z"/>
<path d="M6253 6115 c17 -31 67 -83 67 -69 -1 5 -19 29 -42 54 -33 37 -38 39
-25 15z"/>
<path d="M6390 6015 c0 -16 16 -20 24 -6 3 5 -1 11 -9 15 -9 3 -15 0 -15 -9z"/>
<path d="M5600 6281 c0 -5 9 -19 20 -32 l20 -24 -16 33 c-15 32 -24 40 -24 23z"/>
<path d="M5560 6231 c0 -5 14 -23 30 -41 17 -18 30 -29 30 -25 0 4 -13 23 -30
42 -16 18 -30 30 -30 24z"/>
<path d="M4305 6720 c-3 -6 1 -7 9 -4 18 7 21 14 7 14 -6 0 -13 -4 -16 -10z"/>
<path d="M3729 6563 c-13 -16 -12 -17 4 -4 16 13 21 21 13 21 -2 0 -10 -8 -17
-17z"/>
<path d="M4377 6594 c-21 -20 -35 -39 -32 -42 3 -3 25 13 48 36 23 23 37 42
32 42 -6 0 -27 -16 -48 -36z"/>
<path d="M5036 6485 c10 -8 23 -15 28 -15 6 0 1 7 -10 15 -10 8 -23 15 -28 15
-6 0 -1 -7 10 -15z"/>
<path d="M6100 6520 c0 -5 5 -10 11 -10 5 0 7 5 4 10 -3 6 -8 10 -11 10 -2 0
-4 -4 -4 -10z"/>
<path d="M4218 6390 c-18 -16 -28 -29 -23 -29 15 0 82 58 68 59 -7 0 -27 -13
-45 -30z"/>
<path d="M5666 6362 c-3 -5 1 -9 9 -9 8 0 15 4 15 9 0 4 -4 8 -9 8 -6 0 -12
-4 -15 -8z"/>
<path d="M5785 6350 c3 -5 8 -10 11 -10 2 0 4 5 4 10 0 6 -5 10 -11 10 -5 0
-7 -4 -4 -10z"/>
<path d="M5910 6256 c-15 -39 -12 -46 6 -13 9 16 13 31 10 34 -3 3 -10 -6 -16
-21z"/>
<path d="M5400 6169 c0 -20 23 -54 66 -99 35 -37 48 -60 67 -127 29 -101 79
-177 195 -295 82 -83 134 -119 150 -104 4 4 -39 51 -95 104 -155 148 -218 235
-244 336 -13 53 -7 67 19 43 15 -14 19 -15 19 -2 0 8 -4 12 -8 10 -4 -3 -9 1
-12 9 -3 7 -30 27 -61 44 -32 19 -62 44 -71 62 -16 31 -25 38 -25 19z"/>
<path d="M5606 5947 c3 -10 9 -15 12 -12 3 3 0 11 -7 18 -10 9 -11 8 -5 -6z"/>
<path d="M5875 5380 c10 -11 20 -18 23 -15 7 6 -18 35 -31 35 -5 0 -2 -9 8
-20z"/>
<path d="M4360 6155 c-7 -9 -10 -18 -7 -21 3 -3 10 4 17 15 13 25 8 27 -10 6z"/>
<path d="M4190 6135 c-7 -9 -10 -18 -7 -22 8 -7 37 15 37 28 0 14 -16 11 -30
-6z"/>
<path d="M3577 5993 c-4 -3 -7 -11 -7 -17 0 -6 5 -5 12 2 6 6 9 14 7 17 -3 3
-9 2 -12 -2z"/>
<path d="M3431 5634 c0 -11 3 -14 6 -6 3 7 2 16 -1 19 -3 4 -6 -2 -5 -13z"/>
<path d="M4694 5938 l-19 -23 23 19 c21 18 27 26 19 26 -2 0 -12 -10 -23 -22z"/>
<path d="M6516 5994 c-4 -9 -4 -19 -1 -22 3 -3 11 0 17 6 9 9 9 15 1 23 -7 7
-12 5 -17 -7z"/>
<path d="M6297 5933 c-4 -3 -7 -11 -7 -17 0 -6 5 -5 12 2 6 6 9 14 7 17 -3 3
-9 2 -12 -2z"/>
<path d="M4296 5919 c-14 -34 -13 -49 4 -49 11 0 25 68 16 77 -3 3 -12 -9 -20
-28z"/>
<path d="M4275 5860 c3 -5 11 -10 16 -10 6 0 7 5 4 10 -3 6 -11 10 -16 10 -6
0 -7 -4 -4 -10z"/>
<path d="M3702 5685 c0 -16 2 -22 5 -12 2 9 2 23 0 30 -3 6 -5 -1 -5 -18z"/>
<path d="M3561 5624 c0 -11 3 -14 6 -6 3 7 2 16 -1 19 -3 4 -6 -2 -5 -13z"/>
<path d="M4004 5476 c-3 -7 6 -30 20 -51 23 -34 26 -35 26 -14 0 38 -11 67
-26 73 -8 3 -17 0 -20 -8z"/>
<path d="M4136 5327 c3 -10 9 -15 12 -12 3 3 0 11 -7 18 -10 9 -11 8 -5 -6z"/>
<path d="M3650 5100 c-9 -6 -10 -10 -3 -10 6 0 15 5 18 10 8 12 4 12 -15 0z"/>
<path d="M4171 4726 c11 -19 28 -40 37 -48 15 -12 15 -10 -1 12 -9 14 -22 35
-29 48 -6 12 -15 22 -19 22 -5 0 1 -15 12 -34z"/>
<path d="M4187 4591 c-4 -18 -7 -42 -7 -51 0 -29 49 -80 76 -80 30 0 31 11 3
36 -23 21 -48 66 -59 104 -6 24 -7 24 -13 -9z"/>
<path d="M4186 5455 c-3 -8 -1 -25 4 -37 8 -20 9 -18 9 15 1 39 -3 47 -13 22z"/>
<path d="M2691 4984 c0 -11 3 -14 6 -6 3 7 2 16 -1 19 -3 4 -6 -2 -5 -13z"/>
<path d="M2484 5228 c-16 -31 -16 -32 0 -19 23 19 40 51 27 51 -6 0 -18 -15
-27 -32z"/>
<path d="M3571 4974 c0 -11 3 -14 6 -6 3 7 2 16 -1 19 -3 4 -6 -2 -5 -13z"/>
<path d="M4760 4290 c0 -5 5 -10 11 -10 5 0 7 5 4 10 -3 6 -8 10 -11 10 -2 0
-4 -4 -4 -10z"/>
<path d="M4802 3884 c10 -10 20 -16 22 -13 3 3 -5 11 -17 18 -21 13 -21 12 -5
-5z"/>
<path d="M4845 3845 c11 -8 25 -18 30 -22 6 -5 20 -7 33 -7 18 1 19 1 2 -3
-52 -12 3 -53 65 -49 17 1 39 -2 50 -8 18 -8 19 -8 6 8 -8 9 -20 15 -27 12 -7
-3 -16 -1 -19 3 -3 5 -14 7 -24 4 -10 -3 -22 0 -26 6 -3 6 -3 11 2 10 4 -1 19
-1 33 0 39 2 12 17 -70 40 -53 14 -69 16 -55 6z"/>
<path d="M5260 3659 c-13 -9 -12 -10 3 -5 9 3 17 0 17 -6 0 -6 3 -9 6 -6 3 4
21 0 39 -8 49 -20 66 -17 25 5 -51 27 -73 32 -90 20z"/>
<path d="M5060 3562 c0 -4 19 -13 43 -20 23 -7 49 -15 57 -17 8 -3 -7 6 -35
19 -55 27 -65 30 -65 18z"/>
<path d="M5585 3660 c11 -5 27 -9 35 -9 9 0 8 4 -5 9 -11 5 -27 9 -35 9 -9 0
-8 -4 5 -9z"/>
<path d="M5558 3523 c7 -3 16 -2 19 1 4 3 -2 6 -13 5 -11 0 -14 -3 -6 -6z"/>
<path d="M6153 3493 c9 -2 23 -2 30 0 6 3 -1 5 -18 5 -16 0 -22 -2 -12 -5z"/>
<path d="M4934 3483 c4 -4 19 -8 34 -10 23 -2 24 -1 7 7 -24 11 -51 13 -41 3z"/>
<path d="M5000 3456 c0 -8 128 -76 142 -76 7 0 -20 18 -60 40 -73 40 -82 44
-82 36z"/>
<path d="M5165 3370 c4 -6 11 -8 16 -5 14 9 11 15 -7 15 -8 0 -12 -5 -9 -10z"/>
<path d="M5210 3360 c8 -5 20 -10 25 -10 6 0 3 5 -5 10 -8 5 -19 10 -25 10 -5
0 -3 -5 5 -10z"/>
<path d="M5788 3453 c7 -3 16 -2 19 1 4 3 -2 6 -13 5 -11 0 -14 -3 -6 -6z"/>
<path d="M6120 3366 c0 -9 50 -12 62 -5 8 6 -1 9 -24 9 -21 0 -38 -2 -38 -4z"/>
<path d="M6685 3140 c-3 -6 1 -7 9 -4 18 7 21 14 7 14 -6 0 -13 -4 -16 -10z"/>
<path d="M6512 3066 c-36 -21 -38 -27 -4 -15 18 6 32 15 32 20 0 5 -1 9 -2 8
-2 -1 -13 -7 -26 -13z"/>
<path d="M6445 3030 c-3 -5 -2 -10 4 -10 5 0 13 5 16 10 3 6 2 10 -4 10 -5 0
-13 -4 -16 -10z"/>
<path d="M6204 2909 c-3 -5 11 -9 30 -9 19 0 37 4 40 9 3 5 -10 9 -29 9 -19 0
-38 -4 -41 -9z"/>
<path d="M4655 2830 c-31 -6 -21 -7 48 -9 52 0 87 3 87 9 0 11 -73 11 -135 0z"/>
</g>
</svg>
